/* XPM */
static char *f012a79d42524a4d9782a204ebf09b7fuvU0wIAQspCfp13D[] = {
/* columns rows colors chars-per-pixel */
"64 64 64 1 ",
"  c #2C2E29",
". c #2E302B",
"X c #30322D",
"o c #333530",
"O c #343631",
"+ c #353732",
"@ c #333832",
"# c #363833",
"$ c #373934",
"% c #353A34",
"& c #363B35",
"* c #373C36",
"= c #383A35",
"- c #393B36",
"; c #383D37",
": c #3A3C37",
"> c #3B3D38",
", c #393E38",
"< c #3A3F39",
"1 c #3C3E39",
"2 c #3D3F3A",
"3 c #3B403A",
"4 c #3C413B",
"5 c #3E403B",
"6 c #3F413C",
"7 c #3D423C",
"8 c #3E433D",
"9 c #3F443E",
"0 c #40423D",
"q c #41433E",
"w c #40453F",
"e c #42443F",
"r c #434540",
"t c #414640",
"y c #424741",
"u c #444641",
"i c #454742",
"p c #434842",
"a c #444943",
"s c #464843",
"d c #474944",
"f c #454A44",
"g c #464B45",
"h c #474C46",
"j c #484A45",
"k c #494B46",
"l c #484D47",
"z c #4A4C47",
"x c #4B4D48",
"c c #494E48",
"v c #4A4F49",
"b c #4C4E49",
"n c #4D4F4A",
"m c #4B504A",
"M c #4E504B",
"N c #4F514C",
"B c #50524D",
"V c #51534E",
"C c #52544F",
"Z c #535550",
"A c #545651",
"S c #555752",
"D c #575954",
"F c #585A55",
/* pixels */
"9w9wwttt7,3wt43wwttwtfha&3wtt737,---2e2-rrrrrsrsrttt74,,77744779",
"779wwtww73,9934wttp79tt77tpt7777eerreerrrrrrrsrr477ewww797799wtt",
"7ttppttww3,4737t7tpw9tw4apt777therdr4eere55ee5e5;37tptw777779tpp",
"ttafffttw743347w,wappfft9977wtlmeerr522e5525222247tat93*433377ww",
"9wttptw99943,47w;waptfft,447taffjreeee52rrrreeee7ttat7,&333447ww",
"774433337t7,37743taw7777447wtt97e5->ee5-rrrree5e77wttw7,9w7799wt",
"973,,,447ww3479,,ta934797777tt942>222552ee522222477www77tww99799",
"pt73,77t3wt43w7,,ta949ah74,7tapt>erreerjrreeee5599w97777w9744334",
"49tw7777t997ttw7,7777747hlmcht3;jse222eereeeee5-79tt7447974343,*",
";3777377t977774,37tww79t479ttw97522>225e2>>2eee237777347tw799ww7",
"&&,,;;,373,,33,,479w99tpww977777eeeerree>2225ee5,37w779wt7,,7799",
"*;,*&&*,*&*;4977,4777wtaffapttwwjjjsdrrerrreee557wptttttw7,*,777",
"343,&&&,*&*,7ww977ww9wphwtahccclrre5555ezjsrre55wtapw99wht733799",
"7973;;,374,37773tttttpfcttffffptee2225eerree525e79w97334p93,,,,,",
"774,,,7w74,4774,ttt97waflhft94,;5eeeeeee225522ee377943343;&&*;;&",
",333,3wp,;;,47977774,,7tfp97,2eweeerre2>5ee22>2e,499979t,,;,37,;",
"2;-2ee-++->2552>>++>5555jjreersrrrrreerjrrdre2557erjrree-2rrre55",
"reeee0-+222222>--+#2e5eejbzrrsr522662265jzjde525-222-->52erreeee",
"rrrr2>2>522>--##-#-52>2erzjerrreersre2eerdsre525222-#>errrrre5er",
"2ee2-$-e-#+#++#-#->5>++>6rreersrNbbzrrdj2555eeeee4e22eerrrrr5eer",
"2ee2-+2eX++#-22e22ee2+X-erreerzbjseeeesM255erree255eeee2eeeee552",
"rrr0-X$-++-2ersjrrrje-#-rjbreszb22225rzBrrersrre55erre5>555eee52",
"ere2-++$>2errjjzzrrzje2>2rzjrdjjerrrrjzBsrrsjsrrrrrdjde2ee25eree",
"-22-++++25ersjdrjrejjr22X2sjssjrjbMNbjsseeeesjsrsrrrrr52se22erss",
"re2-##>2eerjjjssbjjzjr5#2rzzzMBBbjrrrjjjeeeerdrrrrrrjr5>reerreer",
"we>#X+>5ersjjjjsjsjzbr2-ejbzzbBBbxjsjdresrerjjsssrrrdre6eerrsrrr",
"e5>#++2ersjjjjssrjxbbd5#rsjrejjjjjjjjjrejjssjzjjdreerssr2rjrrbzr",
"ee2-+-2ejsjjsjsssjbMbr2#rjsresjsrrrsjjjjbjjjjzjdsreeerrs-szerbj2",
"re5-##>5jjjssssjjbMbzr>-xbzjjBCBsssrrjbbbzjjjjreee225erj>jxeejs-",
"ee2>#+#-ssrrsrssbbbzree5bbbzbZZBbbzsrrjbbzjsdrreeee225es5jjrere-",
"25ee2>->rrrerssjMbxreeeszbbbBZZbNMMzjssjMbjsjreeeeee25rsrrrrrree",
"eerdree5reeerrsjbbje5ejMBBBCZFSNjbBMzjzbBbxjjde5eereeeerdressrrr",
"eee22rjrrrrrree5ejzjrrMFrrjMZCbjjbCZCbjsbbbbzjre2rzbre22rjzjserj",
"5ee6esjrrrrdsdrjszbjrejbjszMBBbseszMBbzrzbbzzsrrerzjeeee25eee22e",
"eerrersrerjjsrjjrjbzjsrrjjzbBMzjeeejbMxsjjjzjjrrrjjre5es5eereeee",
"eerrrsreedjseeererdjzbzzzzbMNbbje22ebMbsssjjjssrrree22eeeeerrrrr",
"5eeeeeeeerjdeeeeeerjbbBBbMBMMbbbre2ejbbjsrsjrsreeerree2e555eerre",
"e55eeeeeeerrssrs5esjzzbMMMBMbbMMse5eszzzsrrrrrre5erjsree2225eeee",
"re5ee5ere5eedjre#ejzjrsjxbbzjjbBeeeerjbMrsrerreeeeersrr52225rsrr",
"jeeeeeejse25rr5-.>sbjrrjjjzjsszMee52erbBssreeeee555eeee2---2eree",
"$2#-rjee-5e>5e> +2sre5rbsrssjxjsee5erssrde5eesreesseree>+-2eee22",
"#2--sr2e255erje##5rre5rbjjjjbbbjre2>>25ejseejzje2ereeee2+-25ee52",
"-2--rr25e55rjr62-5rre5rjrerrjjjdsje5->ejjdrjzzsr>5eeerre##->2255",
"2e--re>2r22er2#-2eereerreeerdjsrrsse22rbrrrrjjre2eeeerre##-->225",
"5e--re>2r2-ee--25e5eeeeerrrjjbbj5rjr2-esrrrrrrreerrrerse####->22",
"5e--ee>55>2ee5ere55eeeeererjlbjjszbj5>6rssrrrrsresjrrrse---##-->",
"ee-#5e>5>5525rss552erreeeeerjzjjBBBzeeejjjrerrjjrsreeeee>>>----#",
"2e-#ee2e>ee>>rree22esseesrsjbMmbbbjee5szjsreeeszereeerre>>>>>-##",
"+&,79977t94,337w93,7fcp7979tfcccxjjbbsrsereerzreeeeerrrere--252-",
"#*39w74,w973,334974wfhawwwtafhatjrdjjree5eeerjr55ee555eee2-#->>#",
",37797,,77744,,,79taafaappafha93rrrsre5eeeeerre5e5222252e2-#>>-#",
"779w743,333433,,7wafptaffapaap73rrerr55e522eereeeee222eeee22222>",
"7ww9774,;,,344334tffatafft97ttttjrrre5ee5222eeeerre2225ee5222552",
"97799977,,3344777tfftttapt437tafjrrree5re2>5eeerree2>>>2-->>2222",
"47799wtt9773,4479wtpptttw947wpppjeere5ere2>erredrree22>>#-2255ee",
"3377wtppap74,,,379ttptw97777tttwseere55ee2>5rerjjssree22#>25eeer",
"t7337ttt9774499w7wpflfptf94tcmmmjje--5rr5525eersjdssre52->>>->5e",
"33,477739974779t7wtptt99f73wft975e5--5ee55252errrrrrre2>->22>>25",
",347t94,777479wtptttt977f74wt7,*err5erre55555eeesrrrre2>2252>>25",
"977ttt94977477wtffatttptw77aft97rjse5eee5555eeeejdrsdre52255>>2e",
"pw779ww9774479ttfattttaf737fhpttrre>-2552555eeeesrrrrre52ee52>2e",
"tw4,3779744479taptw77wttw79tte7wee2->ere2eeee5eeeeeeee2-2555222e",
"t9747974443479tppttww999w77tw74weee22err555ee5555525252-25e525ee",
"twttpp7344347wtplffftww7w79ttwtj>ee2222$22eeeee5e55eee2>255e5eer"
};
