/* XPM */
static char *f9f4c9ef9cdd4330d39de6ffa83c87734akGICNdfAodekUe[] = {
/* columns rows colors chars-per-pixel */
"64 64 230 2 ",
"   c #121111",
".  c #1D1B1B",
"X  c #1F1C1C",
"o  c #060606",
"O  c #191818",
"+  c #1F1D1C",
"@  c #1E1B1B",
"#  c #1B1919",
"$  c #191717",
"%  c #171515",
"&  c #110F0F",
"*  c #1D1A1A",
"=  c #241F1F",
"-  c #221E1E",
";  c #1A1818",
":  c #121010",
">  c gray2",
",  c #211E1E",
"<  c #201C1C",
"1  c #141313",
"2  c #131211",
"3  c #181818",
"4  c #1F1D1D",
"5  c #201D1D",
"6  c #211D1D",
"7  c #111010",
"8  c gray3",
"9  c #1C1A1A",
"0  c #0B0B0B",
"q  c #0E0D0D",
"w  c #1C1919",
"e  c #0B0A0A",
"r  c #100F0F",
"t  c #1B1818",
"y  c #161414",
"u  c gray8",
"i  c #242222",
"p  c #292626",
"a  c #090909",
"s  c #1F1E1E",
"d  c #252323",
"f  c #262424",
"g  c #282525",
"h  c #262323",
"j  c #252121",
"k  c #242322",
"l  c #272424",
"z  c #090808",
"x  c #1E1E1E",
"c  c #2B2727",
"v  c #272222",
"b  c gray4",
"n  c #201F1F",
"m  c #222121",
"M  c #232221",
"N  c #272323",
"B  c #232222",
"V  c #272524",
"C  c #231F1F",
"Z  c #212020",
"A  c #242323",
"S  c #2E2929",
"D  c #151313",
"F  c #131212",
"G  c gray7",
"H  c #2A2626",
"J  c #2C2827",
"K  c #151515",
"L  c #242020",
"P  c #212120",
"I  c #202020",
"U  c #262322",
"Y  c #0B0B0A",
"T  c gray11",
"R  c #242121",
"E  c #0A0909",
"W  c #1E1D1D",
"Q  c #20201F",
"!  c #252221",
"~  c #0D0C0C",
"^  c gray12",
"/  c #292424",
"(  c #232121",
")  c #171414",
"_  c #131313",
"`  c #2D2828",
"'  c #151212",
"]  c gray9",
"[  c #282323",
"{  c #0C0B0B",
"}  c #292524",
"|  c #262222",
" . c #252222",
".. c #201E1E",
"X. c gray13",
"o. c #2B2626",
"O. c #0F0E0E",
"+. c gray5",
"@. c #292525",
"#. c #191616",
"$. c #181717",
"%. c #262423",
"&. c #21201F",
"*. c #272423",
"=. c #0E0E0E",
"-. c #1A1717",
";. c #171616",
":. c #181616",
">. c #222020",
",. c #211F1F",
"<. c #1D1C1C",
"1. c #1E1C1C",
"2. c #221F1F",
"3. c #1D1D1D",
"4. c #222120",
"5. c #161514",
"6. c #141212",
"7. c #070707",
"8. c #0B0909",
"9. c #0C0A0A",
"0. c #0D0B0B",
"q. c #0D0C0B",
"w. c #0C0C0C",
"e. c #0F0D0D",
"r. c #0E0C0C",
"t. c #040404",
"y. c #232020",
"u. c #221F1E",
"i. c #252020",
"p. c #030404",
"a. c #1A1919",
"s. c #0D0E0D",
"d. c #1E1A1A",
"f. c #292625",
"g. c #282424",
"h. c #191919",
"j. c #2C2727",
"k. c #2F2929",
"l. c #020202",
"z. c #222221",
"x. c #1B1B1B",
"c. c #111111",
"v. c #2A2726",
"b. c #1B1A1A",
"n. c #100E0E",
"m. c #262121",
"M. c gray1",
"N. c #272525",
"B. c #1A1817",
"V. c #1F1F1E",
"C. c #141312",
"Z. c gray10",
"A. c #1C1B1B",
"S. c #282524",
"D. c #242120",
"F. c #252423",
"G. c #1F1B1B",
"H. c #161515",
"J. c #181615",
"K. c #151414",
"L. c #191A1A",
"P. c #1D1C1B",
"I. c #131111",
"U. c #141111",
"Y. c #101010",
"T. c #171615",
"R. c #191617",
"E. c #181515",
"W. c #050404",
"Q. c #2B2525",
"!. c #2C2828",
"~. c #2C2626",
"^. c #2A2525",
"/. c #191918",
"(. c #111110",
"). c #1C1B1A",
"_. c #151312",
"`. c #1E1E1D",
"'. c #1C1A19",
"]. c #222222",
"[. c #161616",
"{. c #161615",
"}. c gray6",
"|. c #1C1C1B",
" X c #2E2828",
".X c #2D2827",
"XX c #242221",
"oX c #2A2727",
"OX c #1D1D1C",
"+X c #1E1D1C",
"@X c #22201F",
"#X c #232322",
"$X c #161313",
"%X c #1A1A19",
"&X c #10100F",
"*X c #010101",
"=X c #2B2726",
"-X c #2E2928",
";X c #2D2928",
":X c #231F1E",
">X c #1F1E1D",
",X c #23201F",
"<X c #181716",
"1X c #1D1B1A",
"2X c #282423",
"3X c #1B1918",
"4X c #272322",
"5X c #232120",
"6X c #171716",
"7X c #161717",
"8X c #1A1918",
"9X c #151616",
"0X c #171514",
"qX c #191817",
"wX c #262221",
"eX c #121110",
"rX c #252322",
"tX c #201D1C",
"yX c #211F1E",
"uX c #1E1F1F",
"iX c #0E0D0C",
"pX c #1B1A19",
"aX c #2A2625",
"sX c #131414",
"dX c #181817",
"fX c #1E1B1A",
"gX c #0C0D0D",
"hX c #131010",
"jX c #080707",
"kX c white",
/* pixels */
"  . X   o O + @ # $ % & o * = - # ; * : > # , < @ 1 > O X @ X @ 2 o 3 4 5 6 X * @ 7 8 9 , 5 X 0 q X - X * w e r - X X @ w t y 8 ",
"u i p - a s d f g h g j a s k l i i p j z x d p c v b n m M f c N 0 n B d g V h p C 0 Z A g S D F d g d g S % G l f d g g H J 7 ",
"K Z B L 0 x P n I Z d U Y T n n I I m R E W Q I m ! ~ s ^ Z Q i / ~ x Z P Z ( n B C 0 x ^ Z H ) _ ^ P B Z d y G P I ^ I n Z ` ' ",
"] I m [ { x Z m ( Z m } ~ T I I Z Z i | { s Z m m  .~ ..X.Q ^ i o.O.n Z I Z P P M R +.x I I @.#.y Z Z Z Z p #._ I I Q I Z Q g % ",
"$.I I R q n ^ Z I Q I  .q s I I I m %.! ~ n I Z I  .q &.^ x ^ Z *.7 m Q I ^ Q P B v =.x I Z V t % X.Z M n d -.;.X.Q Q Z Z ^ g % ",
":.Z n 4 { R m >.Z &.Z ..~ ,.>.n ,.n n <.{ ,.,.n n 1.{ 2.Z n Z Z ..q | i ( i m ,.>.4 O.Z 3.3.s _ D d 4.Z x n 1 5.( x 3.3.3.T ( 6.",
"7.{ e E > 8.9.e e E z e o E e e q ~ { a > z { q q { 8 0.q q.{ { w.7.0.e.r.r.~ { { z a 6.F F r w.e q e r F 7 { e r.a r 1 F 7 { t.",
"9 y.2.y.2., u.u.i.D p.a.( N : =.>.R y.j = O.=.n ! [ | | ,., ~ s.,.y.2.,.4 - L j d.8 ;.f f.H @.o.g.i.a h.g g.@.@.C b a.j.o.k.< l.",
"s z.B B X.m i B g L > x.B p -.c.P Z Z m v.#.F X.m m I m Z H y c.X.B Z Z Z d l f ` O.O Z m m I m A j.q b.X.I m B H n.h.m m c m.M.",
"n Q m s Z B n Q B L 7.x.Z g ; G Q ^ Q Q N.B.G I Z Z Q ^ V.f y C.Z I ^ V.^ I Q ^ g   a.m B m Z I P @.& b.I m n Z l   Z.m m i 2.M.",
"..^ Z Z ( B P X.A | 8 A.Z N.@ u I ^ Q Q f w 1 X.Z I Z n m %.% F I I ^ n n m Z Q c D # I I m Z m P H 6.b.Q Q ^ ^ S.1 Z.Z I m D.t.",
"h m Z m m Z Z X.m R a A.Z F.* ;.m ^ ^ Q l @ % A m X.P I X.B $.y A m X.m X.z.X.n N.y G.B Z X.Z Z I d   4 X.n I P f H.<.X.I m ..t.",
") t :.:.J.% % K.1 F o :.L.b.c.r 4 T <.P.x.G & C .., ..<.x.x.c.q @ 9 # w O O ] ;.K w.I.@ # # ; $ $.$.e U.$ :.$ H.% e & K.F F Y.l.",
"> { 9.e e b e E 8 7.t.~ T.y #.) y y 7 z c.;.y J.y r b K.# # 9 B.:.I.8 7 ;.#.y D I.O.7.r % R.) y y r > q y E.% I.W.+.y ) D 6.r o ",
"7 i g *.H l @.g.N Q.0 $.A l !.j.l ` ~.~ A.l !.p g ~.r T d H H f f ^.=.a.i g p H H ^.O./.g g l g f @.{ 3 d g N.k.~ ] d p V g j.n.",
"(.^ Z Q m m m P m o.O.O I P 4.Z Z m @.r A.^ Z n Z o.6.x.^ m m Z m @.7 Z.I ^ n Z Q g I.3 m I n Z n @.q 3 I I n @.O.O X.^ Z I h & ",
"I.Z m Q m Z m Z ^ V 7 # Z m i Z ^ Z S.7 A.^ I X.( @.1 T I Z m Z Z g : x.Q n Z n m H   h.Z m M I Z @.r a.Q Z n g & # X.m ( I H D ",
"6.I I Q Z I I P Q H 6.9 X.m 4.n ^ ^ l F P.Q ^ I Z J % x.I Z Z P X.h I.<.^ x ^ Z Z c y a.^ m X.Z ^ l : ).X.^ n H I.9 P m m Z j.) ",
"_.f >.m Z I ^ ^ ^ (   G.g B m I I I m F ..M Z Z I i H.`.X.^ V.^ ^ i F 5 B m B z.X.i 1 . ( I X.I x Z r 9 B Z s 4.r '.].Q Z Q m F ",
"{ % D : F ] K _ _ G 0 e.' ; b.a.[.K c.b F -.;.{.u u q Y.F c.}.}.}.Y.0 O.6.$.$ $.;.G 0 1 # K.  7 K K.q O.7 O.c.Y.b q 7 }.7 q w.o ",
"<.R  .y _ g.o.l h N g.i.w.A.g.^.N N , 0 4 ^.R j | R 2.2.y.| j , 2.j i.# b |.l  X.XC { A.l o.y }.i l @.Q.6.=.XX^.N  .R >.R y.@ E ",
"x.I d + [.i %.M P P A j.7 x.I m m k H =.x.( m m m X.m B ( d f l l d oX^.+.T n ( l o.=.Z.m oXt c.Z m I g * Y.m d m m B m P i @.n.",
"x.Q %.X K Z Z Z Z n ( H 7 x.n 4.m m H O.T ^ I Z Q Z Z I Z ^ ^ Z i n M o.}.OXZ n I l }.Z.n A t c.I n x B w G Z Z m Z I I I x l   ",
"+XQ f - ] I n I m Z Q c H.3.Z I Z m j.7 s ^ ^ ^ Z m Z Q m I ^ Q m m m j.7 W I I n g.  T I B @ 1 m ( ^ i X 1 m Z Q I I Q I ^ @.D ",
"4 I A ,...B m I m X.n l ; Z X.I I I ( 7 @XX.I n I I Z ^ X.Z n ^ ^ Z m g.  ,.I X.I ( 7 3.Z A 4 y #XP Z k @ % f Z m m X.m I ^ d K.",
"6.$.[.G $XG.9 w # # # O =.#.# ; a.O $.w.-.X @ # b.9 9 a.b.9 3 h.a.] ] ; q ; 1.. b.h.=.;.b.O   =.A.3 3 %Xc.9.#.) 5.% y K.G Y.Y.8 ",
"q 7 : 7 n.q n.O.q a 7.&X: & a +.K.) y 6.7 b }.H.$ :.% y K.: 0 Y.H.H.K.D F       q b _ # X * * ; #.6.z 1 # $ :.#.I.7.K.G.* G.& *X",
"4.p !.c g i g.l H d.8 s g =XD K f S p H -XD ] m @.H g g l j.I.$.%.l H H H f j.j./ q <.i g p @.h N.o.q W l V f g H O.3.H g ;XC l.",
"n Z n Z I I I P d C a x.^ g :.[.I m I I N.#.$.Z I x m M n H % O n n Z m I Q m Z g.7 A.n I n Z M I l r W Q Z V.I H r x.Z m d :Xl.",
">.Q n n n ^ n ^ d j b 3.n f -.$.I Z M B l # $ X.Z Q m m Q f :.O I ^ ^ I Z I ^ Q @.6.1.I m Q Z i B @.7 4 I Z Z m j.  x.Z Z i - l.",
"( ^ I I Q ^ I ^ B R 0 W ^ f ; $ Z Q Z B %.* ; m I I ^ I P f.; b.Z V.^ ^ Q Q ^ ^ H D 4 I Z m I m P d I.>XX.^ n I l F x.^ I A ,XM.",
"N ( >.m 4.Z Z I ^ <.{ s n P <X; B n Z m B O * N.B B P I X.k ;.1Xg i B B B Z I I m F - h ( m m m Z Z   , ( Z n I n 7 1.^ x s 9 M.",
"~ : r q ~ : 7 r +.w.7.r G K c.: $.K K u K._ 6.9 O ;.$ h.Z.O F c.y H.$.$.:.% H.F G 0 r $ y 1 F &     ~ O.: r q r 7 0 { ~ { E 7.l.",
"[. ./ #.a .. .| | 2.j E.b OXN h | N [ % w.s l g.2X* }.n N l  .| 3XY.n U H g.g.| 4X:.Y.R g.h ^.r K ,.g.| | j +.u 5Xg.N N R L 5 a ",
"6Xm N., 0 ^ Z m f M p ^.+.x P B i m g y.=.^ m B p m.7 Z B m B A j _ I m d m m d l 5 Y.V.m M !.D $.I d A M c D K I m A d B B v.7 ",
"3 m i y.w.^ I Z X.Q P | =.s d 4.^ ^ i m.}.x Z Z l | F 4.I Q Z f Q.1 m m i m m m A , c.n m I f.y ; X.I m Q H y K I n Z X.I ^ S.  ",
"3 I d [ O.I Z Z Z P m g.7 ^ I ^ I I d / 7 n n n d | 6.m n Z I i [ D m Q m P Z ^ A | G I I I f :.# X.n n m l :.7XP n Z Z Z Q @.I.",
". Z B y.O.( I I ^ Z m R   m I ^ Z I m N F ( ^ ^ X.y.1 i Q Z P B ( % h Z X.^ I ^ P y.u I ^ I A $ . m I n ^ k :.a.Z ^ I I I I f 1 ",
"6.a.] _ z * X . 9 ).h.[.w.. 1.A.x.h.h.$.O.1.<.x.W 8X}.5 s ..4 OXZ.7 - 2.5 ..<.Z.T O Y.x.3 3 3 }.D , 1.. O ] }.6.b.h.3 3 [.9X;.{ ",
"+.<X$ :.t :.0XF 8   :.% E.& 0 $ t $ -.q w.$.9 ; w.1 # ; t y ~ H.# % ; $ :.:.% D +.}.t ; B.; -.% y D D 6.    :   : a }.8Xw 3Xy 7.",
"qXi g g c f f  Xr a.d F.p wX}.( f N.J G.=.^ l  XeXx.l h g ` Y.<.f A g p c H p g 5 1 %.d p g l l c g g V l g H H k.$ K B g l o.r ",
"$ I Q n ^ Q Z @.r ] n Q B | }.V.I n A 1.=.V.^ l   A.Q ^ I H 6.T n ^ n m Z ^ ^ m L G ^ n Q n I m m m Z I n ^ m X.%.* K I B Z H : ",
"# I m Z I P Z l I.] I I Z j c.V.n s d - Y.^ I H 1 x.Z P I V D W I m P 4.Q Q n B [ 1 ^ n Q I I m M m Q X.Z Q n ^ p X [.m Z ^ @.D ",
"w n I Z Z I P p y 3 n Z Z U u Z B I m L Y.^ ^ l D x.n I P H y 4 I Q ^ 4.Z Q n m h H.P n n I Q I Z ^ ^ Z 4.n ^ n v.X [.m Z I V % ",
"d.h m X.P ^ ^ M 1 A.P ^ W 4 C.Z n x s 1.Y.^ 3.s c.b.I ^ x  .C.4 X.^ m s 3.3.T 3...H.B m x 3.3.3.T 3.3.3.3.3.T 3.rXw [.^ x 3.Z F ",
"  # $ $.K.G   Y.e 0 7 <.s 1.; 1.<.; c.r ;.s 1.O F &XH.x n >.9 9 '.    A.. # $ % 6.~ 7 3.W 4 1.# ;.=.q b.1.4 . Y.~ $.A.W A.a.c.t.",
">.l g. X X@./ R g.% w.Z f g %.g l j.w }.m g d h j.G.Y.n B A d p ;Xw }.Z V l @.j.j.< +.m V g H f.` w w.P d H !.* w.P d %.h H tXl.",
"^ Z m m i B M I V @ +.Z Q Q V.n I f X 7 I n I n d - G I I I ^ I f X }.n I m P Z M , Y.I m I n Z k X +.^ ^ Z i - q I m Z n d i.M.",
"n Z X.Z Q Z ^ Q i 5 q Z n Q Q ^ n d 5   Z I n Z l 4 G ^ Z Z P Z d X Y.^ n n Z Z Z 4 Y.n Z I I P i 5 =.Z m I B 5 O.Z n Z ( f L M.",
"i n ^ m m Z I Z l 4Xn.>.n I P I m V 6 I.Z V.^ n i 5 _ ^ ^ Z m B f 5 F I ^ Z I m m C   I ^ ^ Q ^ f 2.}.I Q Z d 2.O.Z I I m m C t.",
"g.I ^ I ^ I I ^ I yXn.l B X.X.^ ^ B <.I.i I z.I I 1.K X.^ ^ ^ x I b.I.d m Q ^ I P 4   ( uX^ Q n Z ).=.n x ^ m 4 iXZ ^ ^ ^ ^ A.t.",
"% <.T A.;.c.] A.b.O e.D ;.W W x.O u G 6.pXH._ ] H.F r 1 c.Y.Y.}.=.Y.H.2...<.A.a.] }.O.4 W A.$.r K 3 D ; $.1 +.Y.7 9 b.b.%XO 7 t.",
"3 d l @.^.O.<.N.p f.l @ }.Z d i aXy _ g g G.b >.g.| i | D.y.j i.O.c.d c S.p l g @.I.H.N.g H ^.~ ] i c o.o./ O.[.m M l l g l 2.b ",
"a.Z m Z @.  3.Z m I B  .G V.I Q p w _ ^ m y.w.s ( m P i m m d !.:._ P Z n Z Z I H E.K ^ P m @.& O I Q m m h : ] I Q X.m Z m h ~ ",
"A.n I I H 1 3.Z m I B N _ n ( m N.w u X.m j }.^ ^ m B i m I n V $ 1 X.m Z Z n Z c w [.I I Z f.& $ ^ n Z m f.I.$.I m Z m I m @.r ",
"X I I Z c ; x Q n Z B l K ^ I Q l * sXZ B | r P ^ Q m ( B m Z g w D Z ^ Z n Q I l # ] n I m c 6.$ ^ ^ V.Z p D ; Z m m I Z Z c I.",
"..I Q I d pXP ^ V.^ P i dXX.^ V.B # u Z ( R 7 f m I X.Z m I ^ B $.y f ^ I Z I x B ; # Z Q ^ l 6.; X.Z I ^ B 1 fXA n I Z ^ ^ h F ",
";.W T 3.>XK.<.b.Z.O 3 [.  a.K u 1 G   h.O ;.~ # # [.K _ G u x.W H.D y.T a.K [.b.A.K.F K.O A.A.7 D O _ Z.A.b.c.y 1.] u H.b.b.3 E ",
"a.d i h H @.@.l N N N R 2Xg.| - E A.N @.o.g.g./ | j C j % gXQ g c S.*.H g.  }.m o.o./ { ] d c @.g./ e ] l o.o.R U h < w.,.o.g.e ",
"Z.n Z m m m X.m B B M m B B d *.q A.X.B f k m i B m m %.2.}.s m Z Z Z m g w Y.X.i B j.O.h.I Z n I c O.3 B B B m m m  .r x d H O.",
"Z.^ Z Z Z Z Z I I Z Z B I s m d r T n Q m Z ^ n I I ^ d [ }.x Z Z n ^ ^ f w Y.I ( m j.& b.I I I m l & 3 Z m Z m Q ^ d u x Z g.: ",
"4 I I n P n I ^ n n P I B I I f 7 W ^ Z n ^ ^ ^ m Z ^ i / G ^ n n Z Z ^ A * Y.^ m m H I.9 P P Z m g 7 h.m m n x Q n H H.3.I p I.",
"@Xm X.Z m Z I ^ Z Z Z I I I ^ h 6.y.X.Z P m Z I m I ^ I &.% A Q Z X.P Z z.a.G Z Z Z f.F X ].X.Z Z d   A.Z Z I ^ n I g ;.s ^ g 2 ",
"hXE.E.% ) % y D y y G c.Y.c.7   jX) w -.t t -.$ $ #.:.% 1 ~ d.* w * w 3X# Y.{ # ; ] {.E ' @ * w ; $ b D 9 ; $.;.K u H.~ -.; O 0 "
};
