/* XPM */
static char *_b934b2582094e6af5e680f945f45257TF7KfoNhqocLIRTo[] = {
/* columns rows colors chars-per-pixel */
"64 64 198 2 ",
"   c gray10",
".  c #151515",
"X  c gray8",
"o  c #131313",
"O  c #101010",
"+  c gray7",
"@  c gray4",
"#  c #181818",
"$  c gray12",
"%  c #191919",
"&  c #1B1B1B",
"*  c #161616",
"=  c gray14",
"-  c #1D1D1D",
";  c gray9",
":  c gray6",
">  c #202020",
",  c #222222",
"<  c gray11",
"1  c #0B0B0B",
"2  c #2A2A2A",
"3  c gray15",
"4  c gray21",
"5  c #2C2C2C",
"6  c #2D2D2D",
"7  c gray17",
"8  c #272727",
"9  c #282828",
"0  c gray22",
"q  c gray16",
"w  c #252525",
"e  c #232323",
"r  c #353535",
"t  c #343434",
"y  c #323232",
"u  c gray20",
"i  c #2F2F2F",
"p  c gray13",
"a  c #393939",
"s  c #1E1E1E",
"d  c gray18",
"f  c #1E1E1F",
"g  c #39393A",
"h  c #202121",
"j  c #373737",
"k  c #313131",
"l  c #1E1F1F",
"z  c #3E3E3E",
"x  c gray23",
"c  c #383939",
"v  c gray19",
"b  c #323131",
"n  c #444444",
"m  c #2F3030",
"M  c #434343",
"N  c gray24",
"B  c #3A3A3A",
"V  c #323233",
"C  c #5A5A5A",
"Z  c #4E4E4E",
"A  c gray30",
"S  c gray31",
"D  c gray29",
"F  c #4B4B4B",
"G  c #505050",
"H  c #515151",
"J  c #4C4C4C",
"K  c #3F3F3F",
"L  c gray25",
"P  c #414141",
"I  c gray26",
"U  c gray27",
"Y  c gray28",
"T  c #444445",
"R  c #3E3F3F",
"E  c #1A1A1B",
"W  c #181819",
"Q  c #2A2A2B",
"!  c #272728",
"~  c #262627",
"^  c #2D2D2E",
"/  c #29292A",
"(  c #212122",
")  c #202021",
"_  c #19191A",
"`  c #111111",
"'  c #1C1C1D",
"]  c #1B1C1C",
"[  c #090909",
"{  c #0C0C0C",
"}  c gray5",
"|  c gray2",
" . c #0E0E0E",
".. c #0B0B0C",
"X. c #232424",
"o. c #0A0B0B",
"O. c #111212",
"+. c #131414",
"@. c #121313",
"#. c #262727",
"$. c #252626",
"%. c #181919",
"&. c #2E2F2F",
"*. c #272828",
"=. c #1D1D1E",
"-. c #151616",
";. c #242525",
":. c #1F1F20",
">. c #222323",
",. c #282829",
"<. c #282929",
"1. c #1F2020",
"2. c #0F1010",
"3. c #252526",
"4. c #353536",
"5. c #171818",
"6. c #2A2B2B",
"7. c #1D1E1E",
"8. c #3F3F40",
"9. c #424243",
"0. c #3C3C3C",
"q. c #484849",
"w. c #2B2C2C",
"e. c #232324",
"r. c #484848",
"t. c #3A3A3B",
"y. c #333434",
"u. c #313232",
"i. c #4F5050",
"p. c #343535",
"a. c #323333",
"s. c #383839",
"d. c #373738",
"f. c #3D3D3E",
"g. c #393A3A",
"h. c #3C3C3D",
"j. c #3F4040",
"k. c #404141",
"l. c #424343",
"z. c #171718",
"x. c #0C0D0D",
"c. c gray3",
"v. c #070707",
"b. c #151516",
"n. c #212222",
"m. c #292A2A",
"M. c #1B1B1C",
"N. c #131314",
"B. c #2F2F30",
"V. c #060606",
"C. c #0D0D0E",
"Z. c #141515",
"A. c #161717",
"S. c #131212",
"D. c #161617",
"F. c #1D1E1F",
"G. c #242425",
"H. c #2C2C2D",
"J. c #141415",
"K. c #101112",
"L. c #191A1A",
"P. c #1A1B1B",
"I. c #1F2021",
"U. c #222223",
"Y. c #353636",
"T. c #131415",
"R. c #1C1D1D",
"E. c #151617",
"W. c #161718",
"Q. c #565656",
"!. c #3B3C3C",
"~. c #3D3E3E",
"^. c #3E3E3F",
"/. c #3C3D3D",
"(. c #363637",
"). c #090A0A",
"_. c #1C1C1B",
"`. c #0E0E0F",
"'. c #101011",
"]. c #313132",
"[. c #111112",
"{. c #343433",
"}. c #212120",
"|. c #212221",
" X c #494949",
".X c #464646",
"XX c #585858",
"oX c gray32",
"OX c gray34",
"+X c #5F5F5F",
"@X c #5B5B5B",
"#X c gray35",
"$X c gray37",
"%X c gray36",
"&X c #5D5D5D",
"*X c #606060",
"=X c gray33",
"-X c white",
/* pixels */
"  . X X X o o o O + @ # $     %     % &     &       * + = -   & & % %   . ; : + > $ , > , , < < < * 1 & &   % ; ; # &   ; * X 1 ",
"2 $   - < & - < % - ; 3 4 5 6 7 = 3 5 8 , 3 6 8 9 3 - # 0 q > = , , w e $ = >   r t y y y y u t t i X 8 e , e , p , = w p p , X ",
"7 $ # % . X ; # ; # & 5 a 3 9 5 8 3 6 8 s e d 8 p w > - a q $ > & % - $ s $ e f r y y r y y t t 4 u < q e , , , , , = = p > =   ",
"5 $ # & # X * % % * ; 6 a > w e = 7 8 = , w q 5 e q 5 p g q $ , s & < > p < s h j y y k k u y y k u l q = = w w = e , e , p , & ",
"d $ * ; & ;   & & X ; i z w 9 w 9 5 w , , 8 > w 9 3 7 e x 2 - - , s > , ,   $ = c y t v k u y k v b , d 3 3 w e , , , , , p , & ",
"6 ,   # & # ; ;   . # y n d q > 9 q w e p e $ e 7 p = = x 5 p s , s - - p & > 3 j y y t u v v k k y , m = = e p p w = p p , , - ",
"d , % # % .     ; ; < y M 6 6 q 7 9 8 9 q 9 3 q i 9 9 = N d $ $ > < , p - s w 9 B u u u k k k u u u w V w p , , e = = , , = e $ ",
"u r 5 5 6 2 k v d k y j C Z A A S D F S S G H H G Z F N M J K L P N n n I U Y u T P P L L P K K L K y g P x x N z L P R K P I N ",
"*       % %   E &   W o , Q ! q 2 ~ q q 3 9 q 3 q ^ / e % , ( , ( > > s w ( ) . # E   _ E   E   _   . ` E f ' < - < < ] & E   . ",
"+ 1 1 1 @ [ @ { } @ [ @ |  .o + + ` + + ` + ` 1 ..p o . * . . * o + . 1 ] * . . + ` o X ` O o X ` o O 1 o 3 % < < & < < # %   { ",
". } } } { { {  .: { 1 } @ + * * * * . * * ; ; o O X.o X + ` O X o + ; o p % * * * + X ; O  .X # ` o `  .; 9 #   ; . *   # # - . ",
". } }  . . .} } } { 1 { o.o ; . . . . . . . . X O.w . . o `  .+ o + o + e ; ` o + X * . o O X ; X ` * X % q % & # * o ; # ; # . ",
"* : : :  . .} { } } 1 { @ +.# . . X . * . . X X @.3 o + X X ` . * o : o e % + . ` . * O O + o O . X . *   2 ; ; % # ; & < ; . # ",
"# :  . .{ {  .} { 1 { { @ X ; . . . . X . . . X +.#.; + X . o + X X : . $.- ; o ` * . o ` O +  .X X O X ] 7 < ;     # ; % # .   ",
"# : { { 1 {  . .{ 1 { { 1 . * . . * . X X . X X X w ; + X ` + o + ` ` * w < ; * X * o o o o o O . ; + X < 2 < ;   * ; % ; * # & ",
"  * ` + o o X X o o X . o % < % % # # % # % % # %.&., - > - $ e > > = , *.8 , p , , > p e , e e e e , > e j 9 = 9 e 3 7 3 9 5 2 ",
"; < &       < < &       # W ] ' =.' s -     % -.W 8 8 3 ~ ;.w 3 w w = :.>.9 ,.~ q ,.w 8 <.8 q 2 9 q 8 = 1.q q 9 9 3 9 <.! 9 8 p ",
"= p > > s s s , , s - < 2.3.i d d 6 d d 7 6 7   $ r $ e e , e e s $ > X 4.9 / 9 = e 3 8 e e 8 8 = 8 $ %   w % & < & & & ; # % 1 ",
"7 e , , p p , = w p p = 5.6.t u u t y t t 4 4 q = j - p - < - , $ s w 7.8.7 7 6 q e q 5 > $ 2 5 p 8 > s $ 9 #   ; * *   # # - . ",
"5 e e e = = e e e p > e   6 t k y y y y u u u 6 3 a > , s < % s $ - $ s 9.w , w w q 2 q = p q d w = q 3 > q   & ; * o ; # ; % . ",
"v w 3 3 w e , , e , p ,   &.4 u y v y u y k v d ,.g < s > s - , e - & > M q = 9 , 7 q > p = = e q 3 7 2 p 2 ; #   # * & < ; . # ",
"t w w = , p = , p p p , & m r u y y y k k k k d Q 0., - p p $ - p $ & >.q.y 5 = e 5 9 w , , = s q w p 9 e w.< *     # ;   # .   ",
"r = , p p p w e p p , , ' k t u u u k i k k v d Q a , - p < - s - < s e.r.y d 9 8 2 = w = w = p 5 7 e 8 e 2 < ;   * ; # ; * ; & ",
"z y 5 5 d d v v i i k y 2 t.z B 0.0 B B 0 x B 0 y.J u d t 6 y j k u a u.i.U L K L z 0.K L P I P I P z B 6 4 8 , 3 p w q w 3 2 9 ",
"6 j t t p.r 4 j t r t a m #.a.y y y k a.y v k i e.s.a d.f.g.t.x x x h.i u.n j.k.U L K I I l.M M P L N R = 3 8 3 3 3 9 9 8 8 8 p ",
"8 < % &     & % *   + z.s %   # . * % ; . *   ; ; * O x.X.- % &   % &   *   X 2.  % % # # % # # # . c.X O O ` : : : + + : : : v.",
"5 s # % * X # # # % & 7.=   & < % % s % o ; $ % * % X @.*.$ # % * X # # # % < b.s < < - < < - - s < 2.# + + + ` + + o o O O o { ",
"d s #   # X ; % % . # :.= . # ; # - % ; * #   < ; & - * q $ #   # . *     . # z.$ < < & & < < < & < O.%.o o X X o + ` + ` O ` } ",
"i $ ; ; & # %   & X # n.9   & ;   - % * * % X #   ; & 5.6.p ; ; & # %   & X % E 1.< < & & < & & & & +.] X X o + ` + ` ` ` ` ` } ",
"d > % #   * ; ; # X   e q s < * &   ; ; * ; X ; - ; # # m.p % #   * ; ; # X   M.$ < & < <     & & & N.< + ` ` O ` o + O O ` `  .",
"t 5 p e e > 8 w e w q 3 v 3 3 w 3 = = 3 3 3 3 8 8 w = $ B.d , e = p 8 8 = 3 6.h ;.> p > $ > $ > > >   n.< %.%   E < &   & < -   ",
"$ = , , p p e e e e p . s 3 e w 3 e w w , = = > #.7 3 p s w = = e , , > m.= = ; z.% # # % # % # # # +.` - > - - $ s - - < <   . ",
"` { { { 1 @ 1 } } 1 @ 1 V.@.. X X o X X o X o 1 +.p o * * . * * o X * C.1.* * * o ` X . ` ` . . + . : 1   w % - < & < < #   & { ",
"X } } } { { }  . .1 1  .@ Z.* . * * . * * ; ; ` -., o X ` O : X o + ; o ;.* . * . o . ; O  .. ; O o O : - w #   * . . % # ; - + ",
". } }  . . .} { } { 1 { @ -.* . . . . . . . . + A.e o . o ` : o X + S.o 3.o ` o ` . * o + ` . ; X o ; X s 3 # & # * X # % * # o ",
"* : : :  .} } { } { 1 { @ D.; * . X . . . X X o W = + + X o o * * ` O . 3 * o . + ; . O O o + O * o . . > 8 ; ;   # # & < * * * ",
"#  . .} { {  .} { 1 { { 1 A.* . . * . X . . . o %.= * + . X o ` X + ` ; <.  ; + ` ; X + ` O `  .. o : X p 9 & ; & % # *   ; ; # ",
"# } { { 1 {  .} 1 1 } { ..z.* . * . . X . . X o _ = . + . O o . + ` X z.! % ; * . * o X X X X + ; ; o X p 9   ;   . #   ; * & % ",
"- # . . * ; # # ; ; % % * ' < & ]   & &   &   % F.k 3 e 3.p w 8 G.3 q e.w.q 8 3 *.3 w 8 ! 8 9 9 9 9 3 = q 0 7 / H.9 6 i 5 d y 8 ",
". ; X Z.Z.. * b.b.* -.D.J.O.Z.J.J.D.+.X J.+.Z.+.K.L.P.%.I.~ U.>.U.>.X.7.=.X.>.>.w >., U.1.) e.- < < & P.* s $ s f s $ $ s < $ & ",
"#   X X o ` + o + ` ` X + + + { [ O.N.o o + o o ` + ` @ z.Y.9 2 9 e = 9 8 e = q 3 w 3 - ; T.> . * . + ` X X O ` X X ` X  .@ @ : ",
"  p * ; ; o + ; X  .` ; X ` X  .C.X * * * * . * * ; ; + R.K 9 7 6 8 = 5 9 s p 6 q p 8 s 7.-.3.. . * . + * * : : * ; O X O : { : ",
"& p O + o o * * . ` + ; * ` X . ` . * . . . . . . . * o f L p e w w 2 2 8 , e 7 6 e 8 2 e E.3 + ` o ` * * o + ` . ; o o ; X } : ",
"  , ` X o + ; o : ` X ` X . X ; o -.; . . X . * . . X o l I = 8 3 w 5 3 > p 3 , w q 8 5 3 -.3 . o . + ; . O O o + ` * o . * } : ",
"& w ; * ` X ; X + O o O ` . ` + o D.; . . . . . . . . o > q.6 2 p 8 7 8 = p = p > 2 , e 3 A.q % ; ` + ; X + ` ` `  .* o O .  .: ",
"& w # ; o . . + + + + O ` # X + X ; * . . * . X X . X o 1.r.d 6 8 q q = w w w e = d 9 w 3 W.! % ; . . * o o o X o ` ; * o . : : ",
"  2 $ $ $ $ s s $ $ > $ > > $ s P.M.& # % # # % ; % # ; e.Q.M I I M L L M n U U U U M P a M.H.9 $.w 3 w = 3 3 3 8 8 8 3 w e . : ",
"o w 9 3 3 9 = w 8 3.8 Q ,.8 ! 3., z.L.  _ _ _ L._ %.%._ _ d.8.N f.j.x !.~.h.f.k.^./.z x (.D.5.l 7.R.h l R.s - - $ $ 7.s < & O { ",
"= # # % % # # D.. * 1 P.5.; * . X . . . X . D.. * +. .: e # 5.% # # # * X * 1 ` * . * . * ; X . X } ).@.: : : } }  .O : } } 1 V.",
"6       # # < % % s ; , > s s < * % s * X % s ;   * + o 2   %   # # < % % - # A.- - < < _.< - s s % `.z.+ ` + ` ` + X o O ` + [ ",
"i &   # * o ; ; ; % ; w s ; %     & - % X   $ % * % # b.7 <   # * o ; ; ; # # W - & < < & < < < -   '.# ` + + o + + + + O ` + 1 ",
"v # #   # . % & % . ; $.s *   . % - * . * # # & % < - ; w.% #   % . % & % X #   $ < <   & < < &   & O.% o X X o o + ` + ` O ` { ",
"y < ; # & # %   % X % 9 e &   ; < < # ; * % o % % * & W ^ - ; ; & # %     X _ < s < < & & & & & &   X ] o X o ` + + ` ` O ` ` { ",
"i - #   % ; * # # . & q w $   * < % ; * * ; o   - . % % 7 s # % % ; ; ; # . & R.- < < - < % & & &   o ] + + ` O + X + O O ` ` } ",
"j ,   s & & p - < > p m.9 p p > > $ > > > > $ p , $ $ ] y = < $ - < , $ s p e > p s $ - - s - s s s # p * X . * * ; ; * ; # ; o ",
"r k d B.d i y v y u d w u k i k k d v k v ].y k y v i = ^ k d i d d k v y y i f e e U., U.e , ( , (   ( e p ( , e e e , >.e e - ",
"> - - - P.& < s -   % X O , = 3 3 G.! = p , > [.) / s f $ s f $ & < # X 5 p , $ s $ s :.$ s > > $ > & J.% - ; z.W ; ; ; X J.+ [ ",
"6 e , e p p , w w p p , X d r t y y k t {.r t p 9 t s = p > , = $ p 3 < N 5 d d 3 e 7 7 }., 7 7 = q $ < > 3 # <   % & < %   s O ",
"i , , , , e e = e > p = # i u y t u y u u r r 9 2 r $ p < &   $ s - , > I w w q q 8 2 7 , > 5 6 p w = , |.8 %   * . X # # ; & o ",
"v e = w w = , , e , p , % k t y k v y y y k k 2 7 t < p > - & > , < - h l.e = w p 2 9 , p e 3 q 9 8 6 9 , 8 ;   % ; . % & * ; X ",
"r w 3 w e , , , , p p ,   u r u y k y y y v k 7 d j s < p > $ p , < < = Y 5 9 3 3 5 q = , w e > q = 3 9 = q # *   % %   & ; * # ",
"4 e e , p , w e p p , , < u u u u t k i k k k 7 6 4 , s , s s < > < - 3.D k 6 e w 7 = e , , p $ 5 8 p 8 = 9 < ; & # ; * % * ;   ",
"B = , , e e w = , e w = $ j r u r k y y y t u i y 0.e > w s = 8 p p 9 9 D y v i d 6 7 d d d d 5 k i 5 2 8 6 < % - ; & $ %   $ < ",
" X.XI I n U Y r..X.X XD B L  XY Y U .XY U U U P j XXJ  XA Y A Z A S oX0.OX+X@X#X$X#XOX%X%X&X*X+X$X&X#X=Xu 0.r t 4 y j 0 4 0 x v "
};
