/* XPM */
static char *d1fb809233c84982ad7531b126a3c314d98oDv6V1ZMOw4V8[] = {
/* columns rows colors chars-per-pixel */
"64 64 107 2 ",
"   c #060708",
".  c #07090A",
"X  c #0C0C0D",
"o  c #100F0F",
"O  c #0D0F10",
"+  c #0F1112",
"@  c #121415",
"#  c #181717",
"$  c #141718",
"%  c #16191B",
"&  c #191B1C",
"*  c #171D21",
"=  c #1A1E21",
"-  c #1D2225",
";  c #1E2529",
":  c #1F292D",
">  c #202527",
",  c #212629",
"<  c #232A2D",
"1  c #282D2F",
"2  c #262E31",
"3  c #282F32",
"4  c #263135",
"5  c #2A3236",
"6  c #273338",
"7  c #2C3539",
"8  c #2B383E",
"9  c #2C383C",
"0  c #2E383C",
"q  c #2F383C",
"w  c #2F393C",
"e  c #2D3A3F",
"r  c #30393C",
"t  c #30393D",
"y  c #303A3D",
"u  c #313A3D",
"i  c #313B3E",
"p  c #323B3F",
"a  c #2C3B40",
"s  c #2D3B40",
"d  c #2E3C42",
"f  c #2E3C43",
"g  c #2F3E48",
"h  c #313C41",
"j  c #323C40",
"k  c #333D41",
"l  c #333E43",
"z  c #303E44",
"x  c #333F44",
"c  c #313F48",
"v  c #304046",
"b  c #314147",
"n  c #324147",
"m  c #344045",
"M  c #344146",
"N  c #354247",
"B  c #314148",
"V  c #354349",
"C  c #32444B",
"Z  c #34444B",
"A  c #36444A",
"S  c #33444C",
"D  c #37474D",
"F  c #34474E",
"G  c #38474D",
"H  c #36484F",
"J  c #38484F",
"K  c #3A494F",
"L  c #344651",
"P  c #364952",
"I  c #3A4A51",
"U  c #3A4B52",
"Y  c #384C54",
"T  c #3A4C54",
"R  c #3B4D54",
"E  c #3B4D55",
"W  c #3A4E56",
"Q  c #3C4E56",
"!  c #3B4F58",
"~  c #3A4E5A",
"^  c #3D5057",
"/  c #3E5158",
"(  c #3C525A",
")  c #3E535C",
"_  c #3F545C",
"`  c #3E5361",
"'  c #40555E",
"]  c #42575F",
"[  c #405760",
"{  c #435B64",
"}  c #435B65",
"|  c #465E68",
" . c #465E69",
".. c #47616C",
"X. c #47626C",
"o. c #48636E",
"O. c #4A6671",
"+. c #4B6772",
"@. c #4B6873",
"#. c #4C6974",
"$. c #4C6A76",
"%. c #4E6C78",
"&. c #4E6D79",
"*. c #506F7B",
"=. c #51717E",
"-. c #537481",
";. c #537582",
/* pixels */
"$ $ $ $ $ @ @ @ + @ + @ + + O X X X . @ $ @ O o O O X X X X $ & % % $ $ @ @ + + + X X X X X X - - = = & & % @ @ @ X o X X X X X ",
"2 7 5 5 3 5 5 3 4 2 3 2 4 < < - $ X X - < , , - ; - = $ + . ; 4 : < < < < , < - , - - & + X X 0 i 0 i r 7 7 7 4 3 4 4 < < & o X ",
"7 0 7 7 7 7 7 7 7 7 7 7 5 5 5 < - O X ; 2 < 2 2 < 3 2 2 , $ < q 2 2 3 < < 2 < < < 1 < < - X X d i 0 0 i r i i i i p p p k r , X ",
"8 7 5 5 3 5 5 4 5 < 3 2 5 5 < < - @ X < 2 2 3 4 3 5 6 7 9 - 2 k 4 7 7 7 7 7 5 7 7 5 5 5 < + + d 4 < < < < < 1 < 4 4 5 5 7 7 2 + ",
"8 5 < < < < < < < < < < < < < < < $ o 2 5 3 7 7 9 q 7 r k , 2 v 5 7 7 7 q 7 7 7 0 7 7 7 2 $ + v 4 - - - > - > , ; , , < < < , @ ",
"v 7 , , , < < < < < < < < < 1 5 5 & o 3 h 5 7 q r 0 r r 0 < 5 F 7 7 k r r r r r 0 i i r 7 $ @ L 4 - - - - - - > , , , , , , ; @ ",
"F v < < < < 3 3 5 5 4 7 5 7 7 7 7 = o s Y 7 5 7 5 7 7 7 7 < r ] r r r 7 r 7 7 r i r 0 7 7 & O ~ U , - - - - , , , < , < , < , @ ",
"Y @._ Y Y U G V M k r r 0 r 0 7 7 , o s $.! V M k h r r 7 4 0 @.U k k 0 k r k k r i r r 0 - @ / X.7 < , , < < < < < , < , < < $ ",
"< C Z Z Z C V v x d 7 7 4 4 4 2 2 = @ , F G B l s q q 6 3 , q -.%.} [ ] Y G V x x x h s h < @ / =.@.] ] ^ Y C v 0 8 7 7 4 4 2 - ",
"- < , > - - - - - - - = - = & $ O X @ o o @ @ @ @ @ @ @ @ @ = V K U F V F l s 8 8 7 4 2 2 = O < H Z Z N Z B v i d 8 8 7 4 4 < & ",
"4 0 7 7 7 7 7 7 7 7 7 7 7 7 7 < & o @ # $ @ @ @ @ o O O O o @ & 2 3 3 2 < < < < , , - - * % X X @ @ @ @ @ o o @ @ o o O o X X X ",
"7 r 5 7 7 7 5 7 4 4 5 5 5 4 2 < - @ @ , 3 , - ; - - = $ @ X o & 7 2 2 2 2 3 2 3 3 4 3 4 3 2 * X @ @ @ @ @ @ @ @ o o + o X X X X ",
"6 7 2 2 < < 5 < 2 < < < < < < < , $ @ < 2 < < 3 2 3 3 3 2 $ o - 7 < < < < < < < < < < < < 2 > O # - & - & & % $ % @ @ + @ X X X ",
"8 7 < : , < < < < < < < < < < < 2 & @ < 3 3 3 3 5 3 5 8 7 > @ - 7 < < < < < < < < < < < < < < + , 7 < < < < < < < ; < < - - @ X ",
"d a - < < < < < < 5 3 5 3 5 5 7 5 - $ 2 7 3 7 7 6 q 7 7 q < # - l 2 3 3 2 3 2 3 3 3 3 3 3 3 2 $ < r 2 4 5 < 2 4 2 < 2 < 2 < ; + ",
"F ) 0 7 7 7 7 5 7 7 7 5 7 7 7 5 7 , # 6 x 3 q r r r r r q 3 # , G 6 7 5 5 7 5 5 7 5 7 7 7 7 4 & < v 4 7 7 7 7 7 7 5 7 5 5 7 2 + ",
"d @...} ` ` _ ( T P V x x h h r 7 < # r ! 7 5 7 7 7 7 7 7 3 # , ] r r 5 5 r 7 7 7 5 5 7 5 7 7 & 1 G 5 7 7 7 7 0 7 0 0 0 7 r 5 # ",
"& - - - - - - - * * * > = - > = , & # k $./ Z M l h r q q 3 & , ' r 5 r 7 5 7 5 5 5 5 3 3 2 3 & 3 K 0 0 r r r i r r i r r r 7 - ",
"4 : - - - - % % $ O X @ # # # # @ # # < K U G Z c k s 7 3 3 & , { r 1 5 5 r 5 5 5 5 5 7 5 5 5 > 4 ] i r r r 0 0 r r r 0 r 0 0 , ",
"6 < < 2 < 2 : 4 2 , o $ @ @ @ # $ # # # # # # # $ $ # $ & # # , $.] p 5 r 5 7 7 7 7 7 7 7 7 9 < 5 #.] M M i r 0 r r r i r 0 i < ",
"0 < 3 3 4 5 5 5 7 3 * & + O o O + O + X X X X X X X X X   X X > %.=.o.] ] ] r M Z Z M M x k k 4 5 =.*.o...] / ^ H D Z v k i d 4 ",
"v < 5 7 7 8 7 0 q 7 - = $ $ $ $ + $ + + @ @ O O @ o O O O X   = p A l A r ] r h k r k r r 7 4 < - 4 7 0 4 4 4 4 < < < < < ; - - ",
"H 5 5 r 0 r r r s q : : $ $ % % & % % $ % % % % $ # $ @ @ o X # & & & & & & & & & & & & & & # < 2 < < , ; - - - & & & $ @ X X X ",
"] v 5 7 7 7 7 7 7 7 < 2 % % * % & % % % + % & % $ @ * = $ @ O # > & & & & & & & & & & # # # # 4 5 4 3 3 4 5 2 5 4 5 4 4 2 - X   ",
"..} P M v i i 0 0 0 4 d * % % % % % $ $ $ $ % $ $ $ % & * @ X - 3 > > > = - = & & % @ % @ X X 4 1 < < < < < < 1 < 4 < < 5 < @ . ",
"0 Y H C v k 0 0 5 4 2 v * $ % $ $ $ + $ % $ $ $ $ $ % $ $ @ X , 7 1 < < < < < < < < < , , % @ 4 < < < < < < < < < , < < < < $ X ",
"X X O o o @ X @ @ @ - L = * % % % + $ % % % % $ $ % % % $ @ X , p 5 5 5 5 5 5 3 3 3 2 4 2 < @ 8 5 1 1 < < 1 1 1 4 4 1 1 2 1 - X ",
"@ o O O O O O + O + * Y 2 $ $ $ % $ $ % % & % % $ $ % & = $ X < A 5 5 7 5 7 7 7 7 5 7 7 7 4 % d r 5 5 5 7 5 5 7 7 4 4 7 5 7 , X ",
"< , - - - & & % @ X * ~ c - % % % % $ $ % % & % $ $ $ & & $ O 3 K 7 7 7 r 7 r r r 0 r r r 7 - C i 7 7 7 7 7 5 5 7 5 5 7 7 7 < X ",
"5 < < < 2 < < < 2 & = ) ` L g 8 4 < : : - - * * * * * % % $ o 3 ] p r r r r 7 r 0 r r 0 0 0 - U Z 7 5 7 7 7 7 7 5 5 5 1 4 4 < X ",
"5 < 4 2 5 5 5 7 9 3 * v L S c c B B B g s a 8 8 9 7 2 < , - = 5 } l p r r p r p 0 r r r 0 r < ^ K 7 5 5 5 5 5 5 5 5 5 5 5 7 < o ",
"0 < 7 7 5 0 5 0 0 7 $ $ $ @ @ @ + + + + + @ + $ $ O $ @ @ @ @ , *.| I M k p p p 0 i r i r r < ^ ..i 7 7 7 7 7 7 7 7 7 7 7 7 4 @ ",
"A 3 7 q q q q s k r * = * @ @ @ + O O O O O O O O O O . X .   * o.*.+.o.| ] ] U K Z Z M k k 5 [ ;.o.^ H M v k k 0 i i 0 0 0 0 & ",
"] q 5 7 7 7 q 6 7 s = = * $ $ $ % % % $ $ $ $ $ @ @ $ $ @ O X O 1 1 1 1 1 1 < < < < < > > , & 0 ) ) / Q Y Y K F V F B k d 0 7 % ",
" .[ c h r q q 9 q 5 = < ; $ $ & & & % % $ $ % & $ $ $ $ % $ O o > > > & > & & & # & & & # $ $ @ X @ # $ # @ @ @ @ @ + O + + X X ",
"L ' T U U c x s 7 5 = < 2 $ * * % % $ $ $ $ $ & % $ $ & % * @ o r 7 5 7 5 7 7 7 7 7 4 5 4 5 5 , $ @ # & - % $ # @ @ + O X X X X ",
"@ @ @ @ @ @ @ O + + + 2 g * $ $ % $ $ $ $ $ $ $ $ $ $ $ * $ + + h 7 7 7 7 7 7 5 5 5 5 5 5 5 4 < & + @ , 5 < < < < > , - & O X X ",
"2 , > * = = * * $ O X 2 g = $ $ % $ @ $ % $ $ % $ $ % % $ $ + + M 5 1 1 3 3 3 3 3 2 3 3 < 1 < < - @ $ < 1 < 1 < < 4 5 5 4 - X X ",
"3 < < 2 < 3 < 2 2 = + 2 c = $ $ $ % $ $ % % * % $ $ $ % * & $ + V 2 < < < < < < < < < < < < < < < % @ < 4 1 4 5 7 7 7 7 0 , X X ",
"8 2 2 3 3 5 5 5 s 5 * 2 ~ 2 $ $ $ $ $ $ % % % % % % $ % % & @ + F 2 , , , < < < < < 2 3 3 3 3 4 4 & @ 5 0 2 0 0 r 7 r r r < O X ",
"8 2 5 7 7 7 7 7 q 7 = 2 [ L 6 < * * * * & % $ % $ % $ $ * $ @ + ' x 2 2 4 4 5 5 4 5 5 7 7 7 5 7 7 & @ 7 M 5 7 r 7 r r r 7 < @ X ",
"V 6 5 7 7 r r h r q , < ` ` ~ ~ L c c c s a 6 3 4 4 2 ; - * & $ ) $.} [ ) / Y Q U V V r h s r 0 7 - $ r ] r 7 4 7 7 7 7 7 4 @ X ",
"! V 3 7 9 q 7 7 7 7 > # = > > , < < < < , , ; , > > , - = * = = 3 s s 0 7 7 7 5 4 4 < < < < 2 < , # $ 7 $.} ' K K Z v p r 4 o X ",
"[ | G x h r r r q 7 < @ # $ # = < = - = = = * * & $ $ $ $ O + 5 , - < - - - - = = = & $ O X @ # # # # & < < < < > - - - & # X X ",
"s / U P S x x q 6 6 , @ @ $ @ 2 7 2 < 3 3 2 < < < < , , ; % + d 2 < < < 3 < < < < < < , , @ @ # # @ @ @ @ o o o o X o o X X X X ",
"$ $ $ $ $ $ $ $ $ @ @ o O O O < s 3 3 2 3 3 5 2 2 3 3 2 2 ; % l 5 6 7 5 7 5 5 5 4 4 4 5 1 $ = 2 < < , , , , , > - - - & - @ @ X ",
"4 2 < , , , ; , > - > = = % O < k 5 7 7 7 7 q 7 7 5 7 7 7 < = Z 7 5 7 7 7 7 7 7 7 7 7 7 4 & < h 7 7 7 7 7 7 7 7 7 7 7 7 5 4 - + ",
"0 4 2 3 2 2 2 < < 2 2 < < < % < G 7 7 7 7 7 q q r 0 r r r 4 - U r q q r 7 q q r r r r r 7 , 2 h 5 7 5 7 5 5 5 5 5 4 4 4 4 , - @ ",
"f 0 6 7 7 7 6 7 7 4 5 5 5 5 > 1 U 7 i r r r 0 r 0 0 u 0 7 7 < Y h q r q q q q r r 0 r 0 7 < 2 0 1 < < 4 2 < 2 < < 2 < < < < , % ",
"B r 6 7 7 7 7 7 7 q 7 7 q 7 , 3 | p r p u r 0 0 r u 0 r r 0 < | Q k r r h q h r h r r r s 3 6 d , < > < < < < < < < < < < 2 2 - ",
"G l 7 q r 0 r h p p p p r r 3 8 =.{ Z Z p m r i r r r i r r 4 o.*.] T G V l h h h r k 0 s 3 d l , > , < < < 2 2 2 2 5 5 5 5 5 , ",
"Q I r r r r 7 r q 7 7 7 0 7 4 4 #.#.o.| } ] ] K G G Z m M k < Q { } [ ' ] ! L S c l x 0 k 5 f } d 0 r r 0 7 7 8 7 7 7 7 7 7 7 2 ",
") | M h r p r r h 0 h q r r q = > > - > > > - - - > - < 4 4 < > - = = = * % % % $ O o $ * @ 5 o.X.| { ` _ _ Y U v v v a 0 0 0 2 ",
") ;.$.[ ] Q I V x k k h k r 0 = @ o o @ @ @ @ @ @ @ o , 7 4 5 4 3 5 3 3 3 2 3 2 3 = O + $ + @ * % % % % % % $ $ % $ @ @ @ + + + ",
"2 F F L V V B B x s s x r 0 7 = @ @ @ @ o o @ @ o @ o < 1 < < < < < 2 2 2 2 2 2 2 2 $ $ = $ @ @ @ + @ + + O + O + + + X X . .   ",
"O O X X X o O o o o & s 3 5 3 4 < , , - - - & & $ O X < 4 < < < < < < < < < < < < < * $ ; $ $ $ % % % $ $ % % $ $ $ $ $ $ @ O . ",
"< , = = = & $ $ @ X % F h h r h 0 r r k r k i r 7 2 O 2 5 < < 1 < < < 1 < 3 < 2 2 2 = * 2 * $ * % & % % $ $ % % % $ % % % % $ . ",
"6 < < < 2 < 2 < < = = B 3 5 5 4 5 5 5 7 7 7 7 r r 0 - 2 h 3 3 5 3 5 5 5 7 3 3 5 5 5 < = 0 * % * & % $ $ $ $ % % $ $ $ % % & $ . ",
"7 2 3 3 2 3 5 5 6 4 , s , > , > , , , < < < < 2 2 2 = 6 V 7 7 7 7 7 5 7 7 3 7 7 7 5 3 : f * $ $ % $ @ $ $ $ $ % $ @ $ $ % % + . ",
"s 2 5 4 7 7 7 7 7 7 2 F > - - > - - - - , , , , , < = 8 K 7 7 7 r 7 7 7 7 7 7 3 5 5 2 = g = * $ % $ $ $ % $ % % $ $ % % % % @ . ",
"B 2 6 0 q r r r k 0 2 [ 2 > - - - - , , , , , , , , = s ] 3 3 5 7 5 5 3 3 3 3 3 3 3 < , L : $ $ $ % $ $ % % * % $ $ % % & % $ X ",
"/ k 5 8 7 7 7 7 7 0 2 O.x , - - ; , < < < < < < < < - f o.h 7 5 7 7 7 5 7 7 7 q 5 0 5 2 ~ a * @ $ $ $ $ $ % % % % % $ % % & $ X ",
"} / k r q 7 7 r 7 7 6 $.O.L x q 7 4 2 2 < < < , < < - c *.| V r q 7 7 7 7 2 7 7 7 7 6 6 ` ~ g a 2 : - - * * * $ % % & % $ $ $ + ",
"/ $.| [ ] Y G B v 0 6 X.&.%.$.O.O.| | _ ~ Y L F c x 6 x ;.*.*.O.o.} ] ' ] ' ] Q K F B a ~ ` ` ~ Y Y L L C g a a a d 6 : : - - @ "
};
