/* XPM */
static char *_5f5b30f2c894fe2ab170ca44636f248cPUjFzKBAJSexz5Q[] = {
/* columns rows colors chars-per-pixel */
"64 64 64 1 ",
"  c #080606",
". c #0E0A0A",
"X c #130E0E",
"o c #171111",
"O c #1C1414",
"+ c #1F1818",
"@ c #201717",
"# c #251B1B",
"$ c #2A1E1E",
"% c #2E2121",
"& c #342424",
"* c #382727",
"= c #372828",
"- c #3B2A2A",
"; c #422E2E",
": c #453131",
"> c #493434",
", c #4B3535",
"< c #4D3535",
"1 c #4D3737",
"2 c #4E3636",
"3 c #4F3737",
"4 c #4E3838",
"5 c #4F3838",
"6 c #533A3A",
"7 c #533B3B",
"8 c #553B3B",
"9 c #573D3D",
"0 c #593E3E",
"q c #5B3F3F",
"w c #5A4040",
"e c #5B4040",
"r c #5C4040",
"t c #5F4444",
"y c #604343",
"u c #624444",
"i c #634545",
"p c #634646",
"a c #664747",
"s c #674848",
"d c #674949",
"f c #684848",
"g c #694949",
"h c #694A4A",
"j c #6C4C4C",
"k c #6D4C4C",
"l c #6F4F4F",
"z c #704E4E",
"x c #714F4F",
"c c #715050",
"v c #745252",
"b c #755353",
"n c #765252",
"m c #7B5757",
"M c #7D5757",
"N c #7D5858",
"B c #7E5959",
"V c #805959",
"C c #815B5B",
"Z c #845D5D",
"A c #855E5E",
"S c #876060",
"D c #8C6363",
"F c #916666",
/* pixels */
"#**$X&*&&&&#X&**&&&$.&**&%X&***&%X&-***&&$X&-**@@***&&O@**=&&&$o",
":ff8#yfafuu0#qffsss9#tssf0$usasa0$asffsaa6$afaf-;fafaa-;ffsssau*",
">ff0$afffaaq$yaffsfr$yssfr$fssfar&asfasas9%asaf-:kffff;;fffsssa*",
"2fsr$aafaafy$yfasffr$assfr&ffaafr&ffsssss9&sass;5fafaf;>ffsssff-",
"2ff0&fffaffy&fffaaar%ssssr&fssfsr*xasaaff0&ssss:6kfsaf;8ffsaaas-",
"9cfy&Vcnxkxy&nxkkkfr%njjkr&mjkckf*Fmcnckxr-nsks:0Mccfk:0mffffsf-",
"#-*&X;:;;-*$X*;*&-&$X&==*$o-;-;&&o:>:::--&X::-=$$2;-;;#$>*&;**&O",
"o::>>;;;;;@@2>;O;2>>>-O-52>>>>&o->:>:;;:-&#90e9w86&$00086*%rr08%",
"&ssffffsaa&%ffa&ufssfu%ussssssr@rsffsffsf7&fsfffff5*jsssf6*ffff*",
"*kssssssfa*%ffy&asssfr%ussssssr$ssssssssf9&kssssss6-ksasa6-fffs*",
"*kssssfsfa*&ffy*sssssa%ssssssst$sfaasssss9-ksssssf8&jassa8:fssa-",
":cssfsfkff-&ffy-kaafsu&nsssssst%kffffsssse:msfffff9;cssff9:kffs;",
"&Acffaar90&&xar%cjjksu%AZmmjssu%kNkjsutee2%Ankkssu2%xufur>&u066%",
" O@OOOOooo.O-*&$=-&%&-$&--%->--%%&O%=&&%$$X$&&&&&%oO&&&%o#$$$$#X",
"%rr0eer096$:faaauue%9saut9&6suusse%5susute%>fsuuur%2faay$5fauay&",
"*ffffsfffa&9ffaassu&essaas=essssss&9ssssss=6fsfsfu%8faaa&8fssaa*",
"-kssssssss*efsssssu&efsssu=usssssp&essssss=7ksssfa&6fsss&9fffss*",
";kssssssss*akssssas=tfssss-tsssssu=essssss=7ssssss&0ssss&tfssss-",
"6Nkkjkksss-nNkjksjs-jlkkjs:ujsfssk=jljjjfk-ucjksss&ujjks&sckkff;",
"&fue9e056>$>juuuee9$>ee956%:5>:-:-+:eee756$-t97:>>$-6::-#*6>5::$",
":66-;996775>%79977>+-75552>>>>>>>::-O>777>#:e6-$6696&$9665222>;$",
"efa6esssssfs-sssssu%9sfssssssssssssu%esssu%9ss:-jsss:=sssfffssa&",
"ess6rfsssssu-ussssu%essfsssssssssssu%esssu%6ss>-ssss>-ssaasfssa*",
"ufs6usaasssu:ssssst&ussssspsssspsssp%esssu&ejs5-jsss2:jsassssss-",
"sfs9nxssffff>ksssfu&ksssssssjssssssu&sssss&esj7>kssf29bfffksfss:",
"0ur>jAcjkssu=kfusre%fblupppttteee95>#tsjte$6st-=csru:-busfue65>$",
"X$$##$$%$$OO##$O$%%+$$O%%%%%%%+O$%$$+%%%%+O=-=&&-&%#&%&&%#O*&&&X",
"$auruurre0%&ue6%eautt5%tsputut5#9tttttete:&jssssss:-sssas>-kfsu&",
"&fssssffss&&ase=ksssse%jsssssse%assssssss5*jassssf>:jsfsf2;ffsa&",
":kaaaasass-&ssa=jsssfr&jsssssst%ussssssss6-kasasss>:ksssf5:fssa&",
":jaaassass=-ksu-jsssft=jsssfsse&jssssssus9:nasssss5:jsssf6:fsfa&",
"9Zxxxjkjff-:jsu-bsfkks-Dkkjsfkr=Snccjjkfs9>Dcjcjkk9>Njsjk6>cfff*",
"#96>:>::-&O&66>$etet44%jjttttt5#5e7754>::%+ee>4>:>&#5>;;;&#;-&$X",
"&22*o>2>>>:=+265554-#4555-%75755-%5555445=%5555%=55>>>$%655>>>;O",
"2ff8%ssskfse%ussssh7%thsse%jssssw=jsshssj7=sshs-5sssks&>sssffff&",
"6fs9%assffse%usassse%psjs9=jsssse=jusssss7=suss-6jssff->fsssfsa-",
"6fs0&asssssr&ssssssw&sstse=jsssst=lssssss7-sssa;ejssss-6fsssfss&",
"eff0-kasssft=ksssssw=lphse-bpssst:mssssss0:jsss:tjsfss:9fssfffk*",
"0fu6%mNcjsse%lkjssu6%bsjs5&mbbjst=DNlbjsfe=fuue-eAckuu=9xauurr9%",
"#**&%--&$&--%&$--&=%O-:-%%=--=%&-%->---=&%%---&%%=&-&&%%&$%;-&&o",
"5aufsuuu&5sus7&usss>%usu&5suuu%7sppuputu5=sussuuuuurruuur:>fsau&",
"6fssssss&6ssse-ssss5%uss=esssu&essssssss9;ssfsssssssfsfsf>>fsss-",
"ekfsssss&7ssse-suss7%sss&rssss=tsssssssse:sssssfssasfsssf29fssa&",
"ufssssss-6sssr:ksss9&sss-9fsss-usspssssse6jssssfssssssssf2efasf;",
"mNckjkks-uksfr:bfkf0&jjs-tkkfs=bmcljjjfkreNckkksffffsssss>tksff;",
"-fue0992$;5707-ute9=%e96&>ertr->ew>>79>5-=>ee9907>-:522:&&2ure6$",
"%00099666>%5suurtu0$9utere%9uusut0%6uuuru9$>sutur9$5suu0#6suute%",
";fsfsfsssu%esfssssu%esssfu=rsfsssu%9fffsss&9fssssu%9fsss%0ffssu&",
";sffssfssa&ufsssssu&rfsssu-usssssu%esssssu&effsssu%0fffs&rfssss&",
"6ksfsfssss=ufssssff=sssssu=tssssss&tssssss=efsssss&efsss&ufssss&",
"tnksjskfss*mbjkkfks*kjjkjs-kfkfssf&kcjkkkf=kkkfkks&uffff&skffff-",
";mjks0tr96%9ccjsur6&ekee95%56>>::>&enssuu9%9kuu279%>e9>;$5sut09$",
">ree8&0rre9>=rrr0*-r0>$66677252>%&urerree&:etre$:rrree%;urrrrr9$",
"0fsss:fsfssr2ffff>:ff9%sssssssfs:;kssssss:5sffs&9fssss=6fffsssu%",
"rffsa>fsssfr2sssf>>ff0=fssssssss::ksssssf:9sfss&7fssss-9ffssass&",
"ffffu2cssfsr2kssf>>ff0-jusssssss:>jsssssf:9ssss&9fssss-0kssassa&",
"cfffs9bssssr0ksff5>ffr;mkfkffsff:9msfjsfs:rksff-ekssfs-ccfksfss=",
"rcssu:ckssu0>msur-:fr8%nbfkuuess::Dnnjtfa:6fuae&6cajku*rSnkfkju&",
">ueee9eeee997e95%:689656665>-=rr900ee-&re96$:re998$:re09092&0e9$",
"0ssssssssssssfsu&usssffssssf0;ffssssf:-fsaa&9sfsaa&9fffsffr-uss&",
"essssssssssfsssa-aaasassssas0;ffsaasf>-kssa&rfsssa&0fsssssr;uss&",
"ssassssssssssssu-fassassssssr>ksssssf>-fssa&ufsssa*rfsaasfa;ssf&",
"nsffffsssfsfssss;nfsssssssase8nassass6:fsss=kffsaa*usfssffa;ffs-",
"jnckfkstus066662$mAnmmmncjsu8>FNmmmxl>-nkfr&kAMnka&aNkssur9-ckf&"
};
