/* XPM */
static char *_86d3bb899cd41a6e3a0fa8a3f062dceng6n8nZSCCcpRJ9B[] = {
/* columns rows colors chars-per-pixel */
"64 64 85 1 ",
"  c #030202",
". c #090606",
"X c #0D0A0A",
"o c #130E0E",
"O c #161212",
"+ c #1C1414",
"@ c #1E1818",
"# c #211616",
"$ c #241A1A",
"% c #2A1D1D",
"& c #301F1F",
"* c #2C2121",
"= c #342323",
"- c #3A2626",
"; c #342828",
": c #3E2929",
"> c #432C2C",
", c #492F2F",
"< c #473030",
"1 c #4C3232",
"2 c #543636",
"3 c #563939",
"4 c #5D3B3B",
"5 c #5B3C3C",
"6 c #5C3D3D",
"7 c #5F3C3C",
"8 c #5F3D3D",
"9 c #603D3D",
"0 c #623E3E",
"q c #623F3F",
"w c #643F3F",
"e c #5E4141",
"r c #624141",
"t c #654040",
"y c #654343",
"u c #664343",
"i c #684242",
"p c #694444",
"a c #6B4444",
"s c #6D4545",
"d c #6E4646",
"f c #6D4949",
"g c #704747",
"h c #724949",
"j c #754A4A",
"k c #744B4B",
"l c #774C4C",
"z c #784C4C",
"x c #794D4D",
"c c #7B4E4E",
"v c #7B4F4F",
"b c #7C4F4F",
"n c #7D5050",
"m c #7E5252",
"M c #805252",
"N c #815252",
"B c #825353",
"V c #835454",
"C c #865555",
"Z c #865656",
"A c #875656",
"S c #895757",
"D c #875858",
"F c #895858",
"G c #8C5959",
"H c #8C5A5A",
"J c #8D5A5A",
"K c #8E5B5B",
"L c #905C5C",
"P c #925E5E",
"I c #935E5E",
"U c #945F5F",
"Y c #966161",
"T c #996262",
"R c #9B6464",
"E c #9C6464",
"W c #9F6666",
"Q c #A06767",
"! c #A16767",
"~ c #A46969",
"^ c #A76B6B",
"/ c #A96D6D",
"( c #AD6F6F",
") c #B47373",
"_ c #BC7979",
/* pixels */
" . .    .                              .. .. . .  .     . ..... ",
"q81,,>>>>>>>>$.,1----=-%.:2>--->----=$+22,,>,>>>>>>>>->--#,3,2,o",
"Fzqq777777788-Oliq777782owjq777777q7q,%biq7787787788777q8%ws9qq#",
"Jzqq844777778,Ozs77777q2Oij87q7777777,&zt8777778q77q777q8%igq7q#",
"Jzqq88778777q-OMsq7774q2Oszqqqq787777,-zirqq87877847q7489=gs9w9#",
"Pzq8q8q874778>+Msq7744q3Ogzq799787777,=btqq778qqq747q7879=si997#",
"Yzr877887899q>+Cgq7777q2+gzq79qq7777q,-Mt8888q88777477782:js9qq#",
"Tbt877889q97q>#Sg82477q3+jzq727988q7q1-St7777778777747772&jg9qw#",
"WMsqqq7q99qqq,#Plrqq8qr3+nntqr888qqqr1:Psqqqrqqqrwqq99w97:Mgqq9$",
"/(PJCnjjzzjhb2+WWVljhshs+n/FnnnjzMzhhq-~QJJFSCCnbbbzzzjgj-CLzbj$",
"=1,,,>>:>>::>*X1a8222111O-trq75788311,O,311111,1>>,>>>->-+%,>:&o",
"%$##+$######OX=%$$$$$$$$$$#####+o%%$$$++@+o*%$++$#o$$####+++o++.",
"Sjq777747337>$js44488777q8744442=ws8884831=st84492=is9949222999#",
"Ljq77777778q>%zsq8777888r8487777:taq8888q3-gt848q2-gw977999999w&",
"Pjq77787728q,*ns888778qqq848q774-fa87887q2-ja878q3:jg977999999w&",
"Tj778777q8qq,*ns8847888884787q77:jsr8777q3-za88787:jq749799999w&",
"Tz8788778888>=Va88477858888q8qq7:zst888885:na88883:jsq87788887q=",
"Wzqq77748888,*Da88788888888q8qq8>nsq888888:Cfqr8q7>nsr88788877q=",
"Wzwq8q8q8888>=Ssq88q8q8888888qqq>nhqq88883-Fsr8888>Vstr87qqq9qq-",
"(Jzssssisaua2=WChassisstaaueqqii:KShattrtq,TMgfuar:YMsaawttiqit-",
"JWPCCCFCCVlk8+SWYFFFFVDVmnnnkfll:f~PVnkfhf;CRFmlfh;VWTKCMbzzghz-",
" X.oXoXooooOOXOOOO@@@@@@@@@@@@@+@O@@@@@@@@OO+OOOOOXXOOOOoooooXo ",
",2---=--=O:1:::-::::-:*;81<<>>>>:>*;31>>:>=$1>:-:------=:==%=&o ",
"Mzqq878r8%ts887qqr8888,1lt8888848e13ft888e1<hw87q88q8q5879q7q7+ ",
"Mztr78487%ihq7qqqqq874>3ftq888848823hter881<lr887q888q8777777q+ ",
"Czq878887%sgqqq7q8774813jt8888888825htqq8821nt887qq878847q7778# ",
"Jbq878878=hh8qq874778813zr8888888838ziq88811ntr8788877777777qq# ",
"Jzq877877*jh87q88447r815nw7788858828ntq88823nu88q874777777777q# ",
"Pnq8888q4%nlr8q88888881eVt888888883eMiq8q821Mr887788q888777q7q# ",
"YCtqq88q7=nltqqr8q8r881eFs58qreer83uFsq8re12Far8488qqq8qq77q8q# ",
"~~Czhsafs=JWSnnMjnzhsf8e/YFVnmnnhhru~JMjfl83~Fnnzlhjhfhjshstgs$ ",
",sr872233#>hfsuutuuu851*tfuftayee53;tfr833<*fnjflsfsttwrqq8733+ ",
"XoooooooooOXOX$#@+++@@#+@@@O$**$$@#$@@@$+@+++@O+OooX@ooooooX... ",
"zs3233322242-*lt27723333333$es5733332;re3273323332=-a532322222,O",
"Czq78845888q>;jr8477rq8q8q5*efqq88883<ht7484848888-1hw44877qqq8+",
"Fj77q87848q8>-nt84777q88887*fhq888rr8>laq744747788-1hq477q77qq2+",
"Szqq74488488,-na84888788887%fhrq78q84<laq777888888:1zq877999999+",
"Ibqq8744878q1;Va77778788877%flrq88883>naq8888878r8:1nt889997999+",
"Tbq7477q7q781:Caq8777778774*fnr8q7843<na87847888qq:2ntq89997999+",
"Tb99487888781:Daq8877q87884;lzr88q888<Vf87q77888q8>2Msqq9q9979q#",
"QSwwswgwqqqi,>Tlttrrrrqqerq*nDftqttte<Yhurtutqtttt,8Jsqw9wq9wiw#",
"R(RLIIGSMMzMq=W~TYKCnVVbnhl-f/TDMznzz:Y/TYYYJJSnnM11(QTIPJSJMMb#",
"o$$#$$$%$$$$#o+$%*$*******%O@********O$=;;;*;*=%**+o===%&&%%%$#.",
"o#++o+++++#++++$O$$@@@@@$++#@@@@@@OO*$$++@@@+O@OOX++Oooooooooo. ",
"2N9792927233333>:s7733333323222211,>qr7323323323<#8s2222222,22>.",
"9Nw9999q77qq78q1>jqqq8qqq77784775822sr8q888877783$tsq7q799q999,.",
"9Cw929q988q777q21jiq77q7q77878775433jtq88887777q8$sf777777979w2o",
"9Cq99999887777r11zw7q78788q887777834lt888888778q7%sfq77747999w2.",
"wSw977779788qq711ntr87888888q7774835bt888887578q4%jhq88877877q2.",
"gJ977747778778711Ca5448q877q79778878Ma857qq7787q3$ljq77747787q3.",
"sIww99qq799qqq711Fa88q8r8988qqqq773qCa8878q878r88$nlqq8877778q3X",
"gTjiwswwwwwwqqw22Ylarwwwwqqwqqqwqq8tYjawwqqrwqtt8%Dntqqtqrqqqq7X",
"7^QLLLSSSCSbjjzw>W~TPPJFSFSCMbbzznf3~~YYJDnnzzzzh%M)WPPJSSSMzbiX",
" ooO+Oo+O+O@O+++X+$##$$####$####$#@X+$#$########+XO%%%%$%%$###+ ",
"%##++##+##++++#+++oo%#+O+oOO@OO+oo*$+####+@++##++O$$#+#+++++++OX",
"Jjq929972744778873=>hq73q7833332>-hi4444844733433>rt8744999222q&",
"Ph84447qq844888878-1hw78487777781-ht88777787748771swq7799999999&",
"Yh87777q874748q877=1jt78878877781:zi8qq87qqqq77872hw777q999999q>",
"Tj8q7778q77747888q-1ztq8877877782:zi87qq8888778871zwq7q9999999q>",
"Whq87q887777487788-2zi8q787888882>Mi778q8887787772zw77q999999q9>",
"~jq888q7q888777488-2Mt7887878q882>Ct77488887778q73ns099799w9w9w>",
"/b88q88q8q88488888-3Cw788888qt871>Sa88888887477837Fs09977999999,",
")Fsaaiiaiiatiiqwtt-7Phsiiiqqqtii2>Wnsaiitastqwtt83Ynssgi9wwwwww,",
"))/~~QTTTTPPPFFCSC12_)/~QIJJFCSJg=()~Q~WTYYJJSSMC7I)^QQRLSGSCSL1"
};
