/* XPM */
static char *_ffb881fc2c34ee8914b610194d817bfOA9C1SMzCOoXDj2S[] = {
/* columns rows colors chars-per-pixel */
"64 64 45 1 ",
"  c #0A0803",
". c #0C0904",
"X c #0D0A04",
"o c #0B0903",
"O c #0A0703",
"+ c #0B0803",
"@ c #090703",
"# c #0C0A04",
"$ c #0B0804",
"% c #090704",
"& c #0F0B05",
"* c #090702",
"= c #090602",
"- c #0E0B05",
"; c #080602",
": c #0D0A05",
"> c #0B0904",
", c #080603",
"< c #090603",
"1 c #070502",
"2 c #0E0B04",
"3 c #0E0B06",
"4 c #0C0903",
"5 c #0A0804",
"6 c #0C0A05",
"7 c #0C0905",
"8 c #0A0704",
"9 c #0F0C05",
"0 c #0D0B05",
"q c #0E0A05",
"w c #0F0C06",
"e c #0E0A04",
"r c #0B0805",
"t c #0B0905",
"y c #0A0805",
"u c #0B0906",
"i c #0D0A06",
"p c #0E0C05",
"a c #090804",
"s c #0D0904",
"d c #0D0B04",
"f c #0B0703",
"g c #0F0B04",
"h c #080502",
"j c white",
/* pixels */
" .XXooOO ..+@O.X#...XX. O$. @%$#.&X..Xoo*=O .X--$;Oo.:> ..$,<+X$",
"1,@*o OO*@@  *$.;@ +2X.O1,O@O>#3-Xoo##o ;;;;.XXX.@oo#X+.:.$$... ",
"1@ @.O@@@@@@*;O# @$:X.O;11,%O+...+@>..o$%,;=.X.@$#oo..O$-.O+.+O@",
";$$ -.@$:X#+;,$:.@42XO;;;,@>>-XO5.5>:...5@,@.X.;>-> $+OO--+O++.@",
"O$$O#2#:-X.+O@ $+;*#.@@> ; --&-.6..#-....$@>O*O@>--7$OX-XX+8<*.@",
"$OO=@XXO@O;@O;@@@;;@.O59-*@:X ..$@o424.++.5O@;5$0.X-::-q>+o$8@O$",
"...*OX.;,o@@;,5$:.@$:@8..@5-#; .@@+o#.+O+X$ >@>>+;+-0::.  o+ +..",
"o44@O>#><O>>,55+-&X:::>.o5>XO@$.55+ +##76o $#5 +;1>9-.+@@@oooooo",
"o4X..OO>+O<@>$OO.X.::-X>o>>o@@$.55.O@4#:0:66##.O,;@-X+O@@=ooo +o",
"o>-X@;,8>.@,$+OOO@+::>O oo>..$$::# @$o>.w:X:$558%,@X:O,@+X#<@@@@",
".@ .;18$>.$,@O@<,@X9- O .o.-X.:--.;,  @+:+o:>O$.5,@$>@OX-->;@@@@",
"O;,O;, :X.+@@@,@5@O#-:+$-.+:$.:::$@<@$55 O+:6@@ 5%,,@OX&22#$O@ O",
";<$.OO$X2.@@@@5$ O%o#-X:-#Xwq+O+@@>$5::#>  >0.8O55,, oe&-X:#5.-$",
" 5>4...+ O@@@.#+ 5$>+O+-9-99-OO8$5 #:-X#+O .X:>$>@,   .eqX. O X>",
">@ o6:X>@@$@1$+@O$6:>@ -9ww9&$O XX$.:6.$OOo#::..0 ,,@@+222:>5,; ",
"@@ >>.XX@@@@,,;,,@.3.5>.9.@O..855$:$O .>5OoX::##-:..##.0#4..>@Oo",
"@$.oOO  @%,55 ,,,%.9.>o@.$,OX.>7$#9#5@>:7>.:::::. #-X---#  X6oo.",
"$$.@<O>. OO #o;,,5 X4 @@ -X$-w-O@-9# @+.###+ X::>O+>>.q-:5O2-#..",
":X$@1@:-.O O.#;,558:+O@@5X.  -w.5$##>>@ >##$>###>@,>5 .+.>4X2-@,",
".$$@;@.-.57>>@,@::#.O585.>5O@ -X.O>00#5% $::#> O OO#.$+OooO o.,1",
"$ @5 @@ @O##@1@.:X @5$8@X::55##o5$#0##>r58.:.>5@ ##X&:>+>OO+o,1;",
".:$.o @,,5o@,,@$. @5>$O@@.#5.-: 5$O>>#>555$:$:.5@ o>$#>   +.>,1 ",
"0-O #X4O>X 11,,,@55>>O88@>#$$.->@O%@$#:>58$$5+:>5 >0.o.@, X:$,;O",
"#.@@:#.$>-X;,,,,O#.$>@5.$$>t7:w- %y5.06:5<@$$@#-#X2-#o.> o#.5,; ",
"-.$.XO@@@ .,5$@5::..6 5#- 5r$.->%yt>.$5X>%@>$%>#oO+..ooo>@*oX@+X",
"X#:X#$ ,@.+,@ 5>-0##oO@ -0.7>@..%%5.>8>-#>5>.$#>@< o6>o4>%;oX>:#",
"O ....@11O@,,,$:0::.O58%O5$>.#:#@5%5@@.-:X--6##55%Oo>o#X:$@@@.-@",
"*<>>$O1,@@@@@@.X--:.@5$O@$$@>6$@yy5$$ #033--:##555@ oo4X:6.%@X>,",
"@OOO8.@@>+<;,,>#>--:$5>><:.>:$8yuyXw-76033-90#>OX.5+o>$X:O @;,1=",
"OOOO7# @5OO@,, > >--.,@..#$55%5tt5.q:77.-3#-.@%, 5 $#X@o$,@,11;+",
".oo >oO@OOt.>.>@%>>>O,@Xw 5>$:.555%5$6:7-w03# 5%@8+.>@@, X5,11 >",
"++oOO  @OOO7:-:O@#O@@@>:-$X-#6>$>>5r.03:-w3:.#:$@,+:6 $@$-5,;@..",
"O$.o@8$ +O55>--. .@%%5#>5>.#@557i>5y5::$>p:55#::@@OX30#..+5%,@$.",
"$#-.@$$.-@555-w.$-$$>5:#$5># yy$65,%%@5t5#5@ ###.e:.#-..>OO$5@O@",
":-- @$.&-@,%#-- $->095$>$5$#55y5>: > @5$>$O$.#6 @.#O :.o#:..8@..",
":-XO5..w.,O :9XOO$55$5555a5:$555.3300$8$:7sw-6#O,@.>#::>#w::5@XX",
"#..O>XX9+@.>8$$OOOO@@55># y>>>#.#3333>%5.50w#55+  ##.::.X---. 65",
"X.$>X.w9.o- %t$ $.+..@%>>5tttr$#5>>.:$@$5@-p#58o##5O+::Xq-:.:X:5",
"X.>:-X:X#X9X$$ O.-.$>,,%555$55#>%5y5>>$>$.9w>8.##>@,@.:X> O,+X:5",
"+o..:X+@$-9-:...--X  @,,5$.$@%XwX588$>>5>-9w5, 66#>%@o>5@@@*#X:.",
"+ ++>.  >:9-#..##>##XX ,@-#@%@>3w#5$.#5%#>.#%,@$75$5 o>O   o#---",
"oo.o+  57..O>#. ;,>$X9X .#@,% $:3:#X9.% -.$y@O$55@OOO+.>.4.#5.:.",
"+.0X+$#.$OO@5>.@1,@, 0::0.  ,>>.3---3#@ :.$5 o$5@<OOOsX$.X:>O> O",
"@.X++.:X4OO $ >X,,.X...>7::: >60:-wX66 $$$#ooo>$ 55 o-9X.X7%< @@",
"@#-+.:---$$.. 5:@@.-. 85--$>.5r7i:w:>$#:$ :X.##>>$8@@#X>..>@OOO ",
";@$:X--9X@5OOOO$o 8.o,%>-.@%588$7>:3>@.::X&-::> >.$>.:5@oooo.$>$",
"@ @6XXXX@;OOOOO$>@@$$,,O$5 OOO$$$$$::>>::--:>.5@.-XX&.5@o$O #>> ",
"--$$:XX#oo..@@8>+@@55@O.s. ...:#.$r.9:$.:: @,@% X&..#$@@@<;=.@ X",
"-XX.X4o >:XX @OOO@@ . $q->O$:::::>@5555>:> ,,,>--9.5@ @@;;;;5 X-",
".+.X. *;O#:X @ .O >#.<@-XOO+#d-:.>%%@  $:#.+,,$$O$5@OX-O;;;;=.d:",
".+>X.*;* ...+ >:$.##. X9&:--X-- %5O@ .--::-X@,@@@@,$.&-@;@O* o#2",
":X..: ;.X...+... 555.0w9-:0w0:>@$>$.>.--#X&.@@OO@,OX.X-XX&-ooX-0",
"-s#.#+<>XsX-#.#X.;,@$:-0# @>: ,@>$@>>4-->>.5O585@,X-$+.qq-0> o$.",
"XfO+-.Oo-g2-X#:->,,@85.# @% o@; +@@ >.::-.5  @,@@,.-.$#>>$.@@OOO",
"OOO.X  .---22X:XO1;, ooo,@@ o ;>.@@ 5@o.::  O,<,1;@.6>>OOO$.#+OO",
"O++.. @  O#22$>#. ;,5>.X>>.oo@,>:.>+@@>>o#X>@,O@1 ooo  O +.$ OO.",
"+X#oX.=;;;>-d.O..$;,@,O::O5>X +::X..4o  o#X>1=O@@>@ >$..X2q@;<O.",
".X.oXX+=@+$.O>$>.O;;<;<.X@@o-&&>%>#--#++XX:O;OOO+.@,5@@XXq:.> O+",
":o@$.-- >: ;; +@OOOOOOOO$.o>:3#@<+--.$X--.X*;OOOO.@*O X2->O+>@+.",
"o =5 ># $X.O@+@;*@@@OOO 50---X ,O .X@@.7$$- @ .. 5@ +.-:#5+. ; .",
"XXO@@+o+>>$.OO,,@ + $5$oo.:-&Xo;@OO5,@OOO>#@@+pXo #X.X2>O@X&-OOO",
"--.O+.@@ X.OOO@;@$...O@>X>X-9-.*@OO=;@ OO+o@@O>ooo2:X2- @@q&#+oo",
"+X&X>:X.X9XO+O@@@5>XX# @@$X#.XO+++O<hO.oo>>@@@@>.ood-#>OO@+:O+.o",
"*$X+@>-XX-4+2#.$@, 9-X >.q-.$.X:X-$O;@5 >55@OO ...#-0+OOO@.X>#.."
};
