/* XPM */
static char *_6ddd7c258c24507eca30037d24b603ap9imxzzukvobhWyd[] = {
/* columns rows colors chars-per-pixel */
"64 64 119 2 ",
"   c #352B23",
".  c #382E25",
"X  c #3A3027",
"o  c #3D332A",
"O  c #41362D",
"+  c #43392F",
"@  c #453B31",
"#  c #493E34",
"$  c #4C4136",
"%  c #4E4339",
"&  c #51463B",
"*  c #54493E",
"=  c #584C3F",
"-  c #564B41",
";  c #5A4E43",
":  c #5C5146",
">  c #5E5349",
",  c #615447",
"<  c #62554A",
"1  c #65594D",
"2  c #695C4E",
"3  c #675C50",
"4  c #6A5E52",
"5  c #6D6155",
"6  c #6F6458",
"7  c #726456",
"8  c #73665A",
"9  c #75695D",
"0  c #7A6B5D",
"q  c #7F705E",
"w  c #776C60",
"e  c #7B6E61",
"r  c #7E7164",
"t  c #827365",
"y  c #897967",
"u  c #847669",
"i  c #86786B",
"p  c #8A7B6D",
"a  c #8D7E71",
"s  c #91806F",
"d  c #8F8072",
"f  c #938475",
"g  c #988775",
"h  c #9A8976",
"j  c #968778",
"k  c #978879",
"l  c #9B8B7B",
"z  c #A08F7D",
"x  c #A2917F",
"c  c #9F8F81",
"v  c #A08F80",
"b  c #A49382",
"n  c #A89784",
"m  c #AC9A86",
"M  c #A79688",
"N  c #AD9C8B",
"B  c #B19E89",
"V  c #AF9E90",
"C  c #B09F92",
"Z  c #B5A28C",
"A  c #B9A68E",
"S  c #BCA88F",
"D  c #B4A292",
"F  c #B7A595",
"G  c #BAA690",
"H  c #B8A692",
"J  c #B8A693",
"K  c #BEAA91",
"L  c #BCA993",
"P  c #BAA894",
"I  c #BCA995",
"U  c #BCA996",
"Y  c #BDAA96",
"T  c #BFAC94",
"R  c #B7A598",
"E  c #B8A799",
"W  c #BDAB99",
"Q  c #BDAB9B",
"!  c #BFAC98",
"~  c #BFAEA0",
"^  c #C0AC93",
"/  c #C0AC96",
"(  c #C1AD96",
")  c #C3AF96",
"_  c #C3AF97",
"`  c #C0AD98",
"'  c #C2AE99",
"]  c #C3AF99",
"[  c #C2AF9C",
"{  c #C4B097",
"}  c #C5B19B",
"|  c #C6B29B",
" . c #C3B09C",
".. c #C6B39D",
"X. c #C7B39E",
"o. c #C8B49E",
"O. c #C1AFA0",
"+. c #C4B2A3",
"@. c #C6B3A2",
"#. c #C7B4A2",
"$. c #C9B5A1",
"%. c #CAB6A0",
"&. c #CAB6A2",
"*. c #CAB6A3",
"=. c #CDB9A5",
"-. c #C8B6A8",
";. c #CAB7A9",
":. c #CCBAA9",
">. c #CDBAAA",
",. c #CEBBAC",
"<. c #D0BCA9",
"1. c #D1BDAB",
"2. c #D1BEAC",
"3. c #D1BEAD",
"4. c #D4C0AE",
"5. c #D5C2B2",
"6. c #D9C6B7",
"7. c #DAC7B8",
"8. c #DCC8B9",
/* pixels */
"8 t 9 < + % J N # * - O   - 8 9 0 3 & .   # ; # o g a O o O o   # 9 7 < < < ; & o   X # & ; ; & & + 7 u 5 o + @ o @ 0 e @ & 3 1 ",
"] ..@.[ l 3 4 2 t ;.O.b 1 D ..K J ( J j * a n g & 7 g , l B a . 0 *.[ ] ] @.;.O.N 3 $ l H Q I H Q N 8 ; p M Z N N l l l 9 f ! ( ",
"Z Z S K ( } v $ l <.( } b p l f a f b Z l < , - 3 e , & m m t . 2 m B B B B K ..=.>.d < l n B Z B I 8 0 o.} ( (  .o.>.4.3.f h B ",
"f l z n m B ( 0 c ( n m b & # < $ O ; p f & O u <.<.F 4 - ; O . e f p f f f l m Z ] =.f 1 i p p a 4 o 0 K A B b m m Z Z T B ; 7 ",
"= e p d j j f 3 v l a f a ; 4 [ M f & * 8 z e C @.Z J J p X . . - 5 5 8 e r i j l b H ] ; % > 1 1 < ; $ 7 h l j j l j l l l %   ",
"& % < 8 3 - + : p 4 8 1 < & z ] D B 4   # n 9 a m l f f i @ . .   . o o $ 4 w e t k c s & < u b @.,.;.Z ; % 1 0 r t i i y u + O ",
"Q l 8 & . # 9 Q 3.>.O.f o t J z f t < - ; 7 & $ 4 8 4 4 < - a # O 8 e ; . o : 6 8 r 0 @ t 5.4.*. .( K K y     o # - ; - # @ 8 I ",
"( } } N 1 a =.../ ( ] X.e M z i 9 3 C @.>.c O     o X X   ; m & 0 ] ..Q a < & 3 ; 3 4 $ t I Z b x x z b 4 % 1 ; o     # o   y ( ",
"n m B J z , m B m x n B p t u 9 ; b ..K K ! 0 . ; l f p 7 < 9 + t n B K ..=.+.:.Q :.3.N 0 l j f f a a y 1 V 3.3.c o & F N 2 ; p ",
"8 a p j 0 @ t a j g i < * l C N t t l l l z l ; l ! Z D P m & X 5 f l z M N Z H H H Z N 8 : 1 4 4 3 ; ; b *.] ( D - t *.] Z ; O ",
"O ; 2 & O   - 9 e w -   + y f g a # - 1 7 e e # * p f f f p @ + $ ; 8 r r a f k l l h l 4 ; r N V 3 . z } S B c l 1 i K B B 9   ",
"+ u l 5 O     & * + .   . O O * & t v : . & ; .   O - 3 5 - & N l o o $ % & 3 e t t u e 2 Q >.=.,.J * m L z f a u ; f b l l t . ",
"v *.} J 5   . y B 4 . - l E 4   * B J t - H Z *   @ ; : % X @ 1 2 $ % @ .   X $ > 3 1 # t ..K K J A 5 7 f t 9 7 ; # p j a u 1 # ",
"K m z 9 # 8 ; t f 7 # E 8.6.;.f 9 1 1 # ; l 5 4 l F  . .b t p X : E >.Q l ;   X o 1 e < l Z m l z z f = 4 8 < o     % ; , & < N ",
"b p 8 * O 1 & # # # ; <.<.} ;.<.3.B -   < a * p o.A N b x b x % D ,.=.4.5.+.l N M :   o t h h j f f f , ; 4 9 4 ; @ o o O   y I ",
"8 ; # n t .   O ; t 0 O.^ ^ A I T ..f 3 >.7.M % e p a a r 2 1 % Z I K K I ( ..*.>.! > . # 2 e r r e 8 #   1 ;.3.,.E V C ! u 4 t ",
"; & O a t . 7 B 0 o $ P A b l l b x j l 5.o.;.4 o + & : - .   o s K A A A A A K ^ ( m # O - ; < > : %   + Z ..K  .} =.,.<.T & + ",
"3.;.f % O O f B u o & Z x j l k l k u f ;.K K B <   $ 0 r ;     2 b l l l l l c x m B 9 4 N & o 6 i p ; o z Z m m Z m m m m : r ",
">.*.;.y O   - ; @   - b l j j l j a 5 : A A m x f & f 7.5.! : < % 0 j l l f j j j l a & + 7 8 b =.,.;.m $ : d k l l k k d r % N ",
"^ B B B 7   # M f o + p f f f i r 9 - o p l l l k j :.o.T T y N p + - 6 t t u p p p ;   1 ~ 3.*.( K S B 8 . & 6 0 r r 0 6 : % N ",
"m l k l t . u 8.5.a o 1 e e e 8 3 & X   : f k f d w N K S S q ; 1 # o   - 8 9 w 9 ; . + D ,.( A Z m v k r o   o 1 < $ @ r ] 5 s ",
"f k f u 8 o z ;.=.3.4 @ ; < : 9 t 6 ; X @ 9 r r 9 % y L Z Z 9   & Z m & + ; - : - O O ; #.K m b l f d r 9 @   @ p l & . a N 4 & ",
"4 e e 8 & . a ) K ..b %     * Z ! ! D M 5 ; 6 8 5 : x x k l 5   % h h ; h B % 2 < t c 4 Z b l j d t 9 9 5 o - 6 t p 8 - = 4 :   ",
"@ * & + . . 7 Z Z A I N 3   O = ; 1 9 i > @ 5 6 @ & h k k l 6 q 7 $ ; O , 7 # ; % 4 l 1 t j i r 8 : - & o $ R ,.=.:.*.:.E e o X ",
"      o t u 0 l l l l n g o O 4 p f 1 # o & r 9 + < f f l l 6 i b % @ ; i N b f 2 o % o o - - & # & - O . 1 J K J S K K } K *   ",
"< e 8 @ 8 7 1 j j l j l p O t ..} }  .N l l e o . 1 r r r r 3 o $ 7 Z ] ....] [ K &       . - 3 & z Z t . 9 z l l l x b b n :   ",
";.5.3.f o . # r u a a t 1 . t m x n B A ( *.#.1   & 6 8 9 9 1 .   l ] A Z Z A A A 7   . < j @.5.F u 0 < . + 4 e r r r 9 9 5 + * ",
"X.] X.<.a . @ 7 w e 8 : t 8 7 l l j j l l b N b %   > 0 9 9 5 $ o u l l l l j j l ;   9 ;.3.....*.O.f 1 # . . @ % % o o o X . p ",
"Z B Z K Q 9 + # ; - # . 8 p ; i a f j j f j f d > o % 6 9 6 6 N 9 1 9 e e e 9 w 1 # : Q *.K K K ^ ^ ] ..x O . # 8 a 5 * * % o ; ",
"e k l z m / l 7 o   . < e 3 o O - 4 8 9 w e 6 - 1 N t @ % @ @ r 0 o @ & 4 4 - @ @ h p A K K Z m n b x l t O = Z #.o...] ! Q f + ",
"O 4 a j j l B J j @ ; :.7.;.f #   o * 3 : % o   % 0 3       & 5 *   0 n H [ l O : x 2 z Z b l f a i t 4 O   t ^ A Z Z Z A A m % ",
"O 4 < 9 a f f f r o : :.*...=.N > o r  .N $ & p k f 8 < : # > d t o 2 f f p t # , r # + & : > 1 : ; @ .   . 7 b z l l l l h y # ",
"2 Z 8 O : 4 6 4 > # % Z K A A K Z x 0 f t & D 5.4.3.3.,.>.B # . o $ t k l f 2 o + $   O 4 y e 7 < .   O p l 4 8 e e r u r w - X ",
"$ < * & r e @ 1 N b : d x l l l l x t @ o t o.I S H K K K ^ 7 % % l o.} ..*.@.M 9 * + % f n y 4 & . O & y m 4 . o o O @ @ o . @ ",
"C 8 . o % < 4 ; : > & w r t i t t t 4     e Z b x x l l l b 9 9 7 h m m b m N K { I x % + & * * 8 l R N 4 : #   . < 8 8 :   ; E ",
"6.,.5   $ R 5...6   o - : > : < : % 0 0 $ & a d f f f d f a 4 @ * 8 r i a a f l l Z ( 0   e +.@.;.*.*.=.*.a o   3 <.7.5.R o w 6.",
";.*.@.< * n ^ =.@.r $   & 0 8 +     p Z e . & > 4 5 5 6 8 4 $   . # % - 1 5 8 r p i f * # ^ } ^ S Z Z A J Z <   t 5.<...v X < >.",
"K K ( Z : O s m A ..H t % * % + $ O @ : %     . . X & 9 7 # . + o p b < . o # - ; & O . O z Z n z h a a a f 5 # B } I B 0   O l ",
"B B Z ^ f X 3 l l m H #.i   & N Q N M M r - o o X   @ 1 0 % t Z ; & p w             & g & * 9 8 7 4 4 6 6 3 # e *.Z n f *   & m ",
"l l l b p . + 0 f f l Z h o f o.( (  .o.=. .F N k o   9 -.b 1 t ; d ~ D j w w r ;   4 Z t     .   o o + $ r 9 f ( b a 8 + * ; h ",
"p p d f 3 @ . % 6 e i f r o h S A Z A A Z A K T ( 0 o N 5.o.,   ; >.*.o.=.*.o.o.L 8 & 2 : O # - e b y & # h g t B a e 3 u Q 5 a ",
"9 9 w 3 & M r X + ; : 1 & . % 5 9 t i i p d d d t : % ( ( T t & < I Z m b b z l k p $ i C C D ..<.3.;.B t @ O & i 0 8 ; c Z 5 ; ",
"< 6 3 @ X 0 q o     @ l l -     . @ & ; > > 3 ; +   1 L m b t b < 0 p p u u t e 4 % - @...( J Z B B m b h ;   O 8 8 : @ e r - . ",
". o o     $ ; $ . o & M m 6 X $ O o .     & M N l + 7 b l u * 7 @ 6 r 1 ; % # @ .   & B n z j f f i i y e # . . @ @ . . # o . . ",
".   o $ t ] >.O.b M w # & & d #.D D a % o o 9 f y @ 8 a r & . . 8 o.T 7       & 8 ; O 8 e 5 1 1 < & # # @ # u - X < 0 9 8 4 # . ",
". ; c I :. .I H H K Z < @ D ,.} } } #.T l 4 & + o X ; 4 $ % d 0 - 0 4 7 7 O   e I N &   o   < N N z -     t I 4 i @...} ..@.n & ",
"o c ..A m b f i t p p * @ D ( S Z m Z Z T ( J M :   o o   % f i o $ r -.5.V 3 O 8 p $     X : f t e < # O = 0 % h Z m b z x l & ",
". 2 j p r 6 : % + # % X + b Z l l k k l l l b b &     # ; > @ o , E :...] *.@.9 O @ o   < N C b v N [ O.n % o # : 2 5 8 9 9 1 X ",
". . % ; > 1 $ X & 9 4 $ o 0 p p u r r w r r t 8 o X 6 Q ,.3.p o b *.K K K K (  .h , . + Z 4.>.*.;...( ( Z ; o 4 7 # . . O @ o . ",
"        % 5 * %  .3. .A p % + % & $ - ; > > % o o a ,.=...} h $ F A m b z c z b n t o # N K S Z B B n z 8 o   1 t e 0 1 % f l 0 ",
"; 7 6 6 1 $   o u I I A Z f < X     < e : o   X t >.#.S B m 7 @ N n k d u u u w 9 ; O . 9 b c k f f p , . % p =.<.<.<.;.n a x t ",
">.<.;.=.,.Q b 8 % ; f l f u 5 o     2 f f :   r 3. .Z l l s % X 0 i 8 < ; & # # o : l % o 1 w r e 5 #   $ J ..^ B m m B Z : % a ",
"o.( K L K T  ...P l < > 1 ; & % 1 8 < % @ . . k ..m l f i > 9 h & + X . .   o # o % p : % : - & & O     $ x m l f f f a 0 O # [ ",
"A m b l l l l x N Z t   $ i V  .o.*.T B f - . % 0 t r 9 ;   < l ,   X O O : b  .b % % b [ =.N p ; . . 2 t 8 1 4 1 1 : & + . O b ",
"l p i r 9 8 9 w w e : o N 4.=.K K Z B b b g - j N t : % o ; > @ O r b F B } *.{ } m 8 J T K ( ..J 7 : ;.5.>.i o   .   8 n 7 # g ",
"; % $ @ o o o @ @ o   @ ! ( Z b l l l f f 0 % m ] N 5   1 +.b X < >.o.} ( S B m b x t t b b m N B l 9 ] ^ ( o.l 5 ; o 7 Z l + % ",
"1 & X O 5 r , o   @ < $ t x f p t e e 8 6 %   & e 8 ;   7 } f o ; S K Z m l f f a p 4 & p d j f f r < b m m N H Q ( f $ 1 < # 1 ",
"B n : & b Z l >   & l t + % # * 7 = + + o   - w 0 5 7 & % p 1 @ # 1 7 7 5 5 > & $ % o . # < 6 8 ; 5 e ; 5 t i a f l l 3   . 7 z ",
"% , % . 1 0 > $ & % % @ .   . p } m :   % u ! 5.>.*.o.Z 2 O o 0 l 5       . + ; 5 8 ;   . : $ o   4 l #   # ; 4 3 3 > o   . . o ",
"t e 5 % , 2 > H :.-.M 9 +   . % 8 y % * E 5.#.T S S Z B l : . O * ; * 1 4 d F :.3.=.] t @ r $ @ O , r 9 0 d l 9 % . . @ w b b f ",
"=.*.o.H 2   : ..{ ( }  .n p < & % O . f 4.( Z Z m b l f f 8 .   ; b *.=.;...( K A m b p # O 1 R H @.3.3.<.=.=.o.y . . l 3.=.=.=.",
"m m m b y @ $ l b b b z b b l s r $ o t x l f a p d p t e < 3 % y %.I A B m x f 0 2 r r $   t ..H Z B m b z f t ; ; @ p D Z B N ",
"9 9 9 & 1 x ; 5 9 r r e e 9 9 5 1 $ 8 : 1 r r 1 6 8 8 3 ; @ x l < f f t e 0 5 : f t p D e . & t t i a i r 0 ; O @ B a $ 4 e t e ",
"o o o   $ d = . o @ $ % # + + o X X 1 % , t 1 o 8 i & o . . = 4 o o o o X . . % l h & - # .   o @ $ & - & O     . 2 7 o . . O O "
};
