/* XPM */
static char *_90a458b03b24068df9ae92cd13ff625C8DKjPu6yWRuStTF[] = {
/* columns rows colors chars-per-pixel */
"64 64 76 1 ",
"  c #060403",
". c #090605",
"X c #0C0907",
"o c #0D0B09",
"O c #100B07",
"+ c #130D0A",
"@ c #180F0C",
"# c #14100E",
"$ c #1B120C",
"% c #1D140D",
"& c #1D140E",
"* c #1C140F",
"= c #1F140E",
"- c #1E150E",
"; c #121110",
": c #131211",
"> c #131212",
", c #161311",
"< c #151413",
"1 c #171515",
"2 c #171614",
"3 c #171615",
"4 c #1B1310",
"5 c #1A1512",
"6 c #1D1410",
"7 c #1E1610",
"8 c #1C1612",
"9 c #1E1712",
"0 c #191615",
"q c #1B1816",
"w c #1C1916",
"e c #1A1918",
"r c #1B1A19",
"t c #1C1A18",
"y c #1E1A18",
"u c #1C1A1A",
"i c #1C1B1A",
"p c #1D1B1A",
"a c #1D1C1B",
"s c #1E1C1B",
"d c #20150E",
"f c #201610",
"g c #221610",
"h c #211913",
"j c #201914",
"k c #211815",
"l c #221915",
"z c #221B14",
"x c #231A15",
"c c #231B17",
"v c #241C17",
"b c #231C1A",
"n c #231D1A",
"m c #261E18",
"M c #261E1A",
"N c #261E1B",
"B c #211E1D",
"V c #211F1D",
"C c #21201E",
"Z c #26211C",
"A c #27211C",
"S c #27201D",
"D c #24201E",
"F c #28211D",
"G c #28221F",
"H c #2A231E",
"J c #242221",
"K c #272524",
"L c #292320",
"P c #282523",
"I c #2A2522",
"U c #2B2624",
"Y c #2E2926",
"T c #2D2928",
"R c #2E2B28",
"E c #302A27",
/* pixels */
"ooXooo.o:1ae:oooXXXXooooooooXXoo.ooXXXXXoXX.ooooooXooX.XXXooo.oo",
"oXo1tVJUUPNmNJJJCVC>Xoooooo:tCCtq11111uVNV0;ooooo;utata8easNJ1XX",
"X:RUmmxd$$$$$$667zz7>XXoo:KRHzzhzNAAANAnzkzno.oo1TJbmzmmBNNk64: ",
"Xtz$$$&$$$$$$$@$$$$$6+.XoUN6$$$$$$$$#$$$$@$&4 XoUz$@+$@@@$$$$$4X",
"Xq7$$$$$$$$$$$:$$$$$$&+ oq$$$$$$$$$$@@$$$$$@@O 2N$$$$$$$$$$$$$$o",
"Xt$$$$$$$$&$$$$$$$$$$$$X +&$$$@$&$$$$$$$$@$$$$ #k$$$$$$$$&d$$$$X",
"ot7$$d$$&$$$$$$$$$$$$$$$  @$$$&$$$$$@$$$@$d$@$X#f$$77$$$$&$$$$$X",
"Xq$$$$$$&$$$$$@@$$$$$$$$+  $$&$$$$$$@$$$@$$$$$+26$$$$$$$$$$$$$@.",
"X7$$$$$$$$$$&d$$$$$$$$$d$. +$$$$$&$$$$@$$@$$%$@#$$$$$$$$$$$$$$@.",
"X+$$$$d@$$$$%$$$$$$$d$$$$+ .$$$$&$$$$$$$$$$$$$$X$d$$d$$$$d$$$$$ ",
"Xo$$$@@d$$$$$d$@$dd$$$$d$@X +$$$$d$$dd$$$$$$$d$ $&$&$$$$$dd$@&@ ",
"ood$$@$d$$$$$d$$$$$$$$$$f$+ +7$$$$$$%$$%$$$$$d+ $$&d$$$$$$@$$@O ",
"X#w$$@$d$$$$$$$$$+$$$$$$$$@ o66$@$$$$$$$$$$$$$@ +7$$$d$@7$$ddd+ ",
"X:z$$$$@$$$$$$$$$$$$d$$$$$@ :6$$$$$$$&$+$$$$$$@  $$$$$$$@@$d$@O.",
"X:6$$d$$$$$$@$$@@$$$$$$$$$@ 76$$$$$$$&$$$@$d%$+ .7$&$$d$@$@$@$+ ",
"Xo4$@@d$$$$$$$$$$$$$$$$$$$@ af$$$$$$$$$$@$$$$$@X.w$$$$$$$$f@@@+ ",
"oX$$$$$$@$d$$$$$$$$$$@$$$$O :$$$$$$$$$$@$$$$$$$OXa$$$@$$$$$$@$O ",
"o.o$$$$$$f$$$$$$$$$$$$$$$+..6&$$$$$$$$@$$$d$$$@oom$6@@@@$$$$$$O ",
"oXX+$$$$++++@$$$$$$$$$@@$o X74$$$$$$$$$$d$$$$$$.of$$$$@$$$$$$$+ ",
"oo:5$$X      XOOOOO$d$$$$o.ou7$$@$$$$dd$$$d$$@$ :z$$$$$$$$$$$d+ ",
"oo:5o  0u1:o   .    O$d$$+ X5$$$$$@$$dddd$$$6$@ uf$$$$$$d$$$$$O ",
"oo..  VUmmNb1:#oo:o. O$$$+.o5$&$$$$@@@@@$$$$$$. J6$$$d$$$$$$$$O ",
"ooXX.VU$$$$&kbLLULzo  +d$+..+&$@$$$@OXXX.XXOX. oq@$$$@$$$$$$$$O ",
"OoootYf$&$&$+$$d$76$X .$&# X+&$$$$+   .X.     .   .oX++@$$$$$$XX",
"oootU&$$$$$&$d$$$$#$+. O$$.X ++#O  XtJUJJNJVattq1oX    X+@$$$+ o",
"oo7T&$$$$$$&$f$$$&$$$.. XX.X      qYJz7$7fzzkmmNVNCV1:X  X+++o +",
"ooKk$$$$$$$$$$dd$$@$$X.X...o::#:wPEh$$$$$$$+$@$$$$$6zmm1.     .o",
"o>L$&$$$$$$$$$$$$$$@$+ XooVRAHPHHx$$+$$$$$$@$f$$$$$$$@66k6o..o+o",
"X0z$4$@$$$&$$$$$$$$$$@.XoCA7$$$&$$$$$$$f$$$$@@$$$$@$$$$$fkmm:XXo",
"Xt7$$$$$$$$$$$$$$$$$$$X 0P$$$&$&$$$$$$$$$6$$$$$$$$$$$$$$$:$&zX.o",
".0$$$$$$$$$$$$$&$$$&$$+ t7$$&$$$$$$f$@$$$$$$@$$6@$$$$$$$$$$$$+ o",
"X:$$$$$$$$$$$$$$$$$$$$$ t75$$$$$dd$$$$$$$$$@$$$$$@$$$$+@$$$$$+.o",
"oo$$$$$$@$$$$$@$$$$$$$$+w$d$@$$$$$$$$$$$$$$$$$$$$$$#$$$$$$$@@@.o",
"oX%$$$@$$$$$$$$$@$$$$$$O&d$$$@$$@d@$$$$$$@$$$$$$$$$@$$$$$$$$$$..",
"oo$$&$@$$@$$$$$$$$$$$@$O5$$$@$$$$$$$$$$d$$$$$$$$$$&$$$$$$$d$$$.o",
"oX@$$@@$$@$$$$@$$$$$$$$X:$$$$$$$$$$$$$$$$$$$$&$$$@$$$@$$$$$@$@.X",
"oX+#+@$&$@$@$$$$$$$$$$@ :$$$$$$$$@d$$d$$$$$$$$$$$$$$@$$$$@$$$X o",
"Xo#$$$&&$$$$$$@$$$$$$$O 6$$$$$d$$$$@$$d$$$$$@$$$@@@@+++++@+OX Xo",
"+X:f@$$$$$$$&$$$$$$$$$o w7$$$&$$$$$$$$dd$$$$$$$$O            .oo",
"XX2f$$$@$@$$d$&d$$$@$$..0&$$$$&$$$$$$$d@@$d$$$$o  .XX#:+.XoooooO",
"oXo&$$$&@$$$$$$&$$$$$+ Xu&$$$$$$$$$$$$$$$$$#+X  XX0JUULmn+oooooo",
"oXX#$$$$$$$&d$$$$@$$$X XA&$$$$$$$$$d$$$$$$+.  XXoJYm&$$$$w#oXooo",
"oo.+$$$$$4$$$$&$$$$$@X.#V$$$$$$$$$$+$$$$$X  ooooJN&$$$$@$$fwo.oO",
"+oo +$$$$$$7$$$$$$&$$X.:7$$%#$$%$$@$+$$O. XOooX:P#$$$$@d$$$gwoXo",
"ooo. X$@$$$$$$@$d$$$$.Xoo+o+$$$$$$$$#OX  XoooooJz$$$$$$$$$$$$+ o",
"o+ooX .. ... XXoOX+@O o.     X+XOOXX   XXXoooXoHd$$$$$$$&$$$$$.X",
"o+oooo..    .  ..    .oOoXoo.     .X Xo:1+X oXot$$@$d$$$&$$$$$X.",
"ooooo:####:###oo.oo..oooXuRLu:XXXXXX5URJAHJ1XoX5$$$@$$$$@$$$$$O.",
"oo.CYGHAKAJPHHHV1XXoooooKP7&&zn1#1VHEz$$$$f&#.X5$$$$$$$$@@$$$$O.",
"oo2H&$&%#7&$$&5$7+ Xo+XaU$$$@$$mAHAhd$@@&$&&&X 0$$$$$@$$$$$$$d+.",
"ooJh$$$$$$$$$$$$$$+XXoX1&&$$$$$$5$$$$$$@&$$$$+ #$$$$@@$$$$$+$$O.",
"ooV&&$$$$$$$$&$$$#76XXXo&5$$$$@$$$$$$&$$$$$$$+ +6$$$$$$@$$$@@$X.",
"ooZ$$$$$$$@@$&&$$$$$$..o&$$$$$@$$$$&$$$$$$$$$# #6$g$$$$$@$$$$$..",
"ouh$&$$$@$$$$$$$$$@$7+ .#$@$$$$$$$$$$$$$$$$$$+ #x$$$@$$$$$$$@+.X",
".Cq%$$&$$$$@$$&&$@$$$@X #$@#$$$$$&&$$$$$$$$$$o qx$$$$$$$$$%$$$.X",
"oh$%$$$$$$$@$$$$$$$$$$O o$$$$$$$$$&$$$$$$$#$&o Cf@$d$$$$$$&&$$XX",
"X7$$$$$$$d$$$d$$$$$$$$+  X#$&$$$$$$$$$$$$$$$$ oL$@$d$$@$$$%%%$ .",
"X7$$%$$$$$$$$$@d$dd$$$+.X $$$$$&$$$$$$$$$$$$$ 0z$$$&@@$$%$@$$$..",
"ot$$$$$$$$@$d$$$$$$$$@O.X +$$$$$$$&$$%$$$%$&O z7$$$d$$$$%$$@$$XX",
"oV$+$$$$$$$$@$d$$@$$$dO oX&$$$$$$dd$%&$$$$&#  #&$$$$$$$$$$@@$%X.",
"oq$$$$$$$$$$$&@d$$$$$$.oX+J$$$$$$$d@$%$$$$$. .#$$dd$$$$$$$#$$+.X",
". +$$$$$$@XXXO@@$$$++X ooooXXXO+$$$$$$$$$X. XX O@$&$$$$$$$O#X  X",
"X.   X XX  X    XX..  Xoo...       OOOXX. ooXXXXXXOOXOOO    .XXO",
"ooXoX XX XOooOXX.  .Xooooooo+XXXX       XXXoooX         .XXooXX+"
};
